<?xml version="1.0" encoding="UTF-8" standalone="no"?>
<svg xmlns="http://www.w3.org/2000/svg" xmlns:xlink="http://www.w3.org/1999/xlink" xmlns:serif="http://www.serif.com/" width="100%" height="100%" viewBox="0 0 4400 2400" version="1.1" xml:space="preserve" style="fill-rule:evenodd;clip-rule:evenodd;stroke-linecap:round;stroke-linejoin:round;stroke-miterlimit:2;">
  <g>
    <path d="M1280.13,2194c-0.48,9.23 3.63,11.56 8.7,22.34c5.07,10.78 5.07,25.41 9.42,28.49c4.35,3.08 27.55,11.56 27.55,11.56c0,-0 -6.53,11.55 -18.85,11.55c-12.32,0 -28.27,2.31 -28.27,2.31c0,0 -24.64,-2.31 -34.79,-13.09c-10.15,-10.79 -19.57,-12.33 -23.2,-20.8c-3.62,-8.47 -0,-20.02 -3.62,-28.49c-3.63,-8.47 -9.42,-27.73 -9.42,-27.73c0,-0 4.35,-28.49 7.24,-34.65c2.9,-6.17 -6.52,-24.65 -5.07,-26.96c1.45,-2.31 7.25,-20.02 6.52,-26.949c-0.72,-6.931 -0,-26.191 2.9,-30.811c2.9,-4.62 7.98,-23.1 7.98,-30.03c-0,-6.94 -2.18,-27.73 2.17,-34.66c4.35,-6.93 16.67,-27.73 17.4,-47.75c0.72,-20.02 5.8,-67 7.25,-80.86c1.45,-13.87 18.12,-63.15 13.77,-81.64c-4.35,-18.48 3.62,-44.67 -13.05,-55.45c-16.67,-10.78 -26.82,-14.63 -38.42,-25.41c-11.59,-10.78 -31.89,-53.14 -40.59,-67c-8.7,-13.87 -19.57,-38.51 -27.54,-46.21c-7.97,-7.7 -13.05,-29.27 -5.8,-31.58c7.25,-2.31 5.07,-14.63 3.62,-20.79c-1.45,-6.16 10.88,-39.28 13.78,-40.05c2.9,-0.77 4.35,-13.09 13.77,-15.4c9.42,-2.31 12.32,-18.48 10.15,-31.58c-2.18,-13.09 -4.35,-28.49 -8.7,-31.57c-4.35,-3.08 -9.79,-11.17 -13.41,-5.78c-3.63,5.39 -9.68,12.13 -11.96,11.94c-4.71,-0.39 -22.83,-5.39 -30.81,-14.25c-7.97,-8.85 -19.21,-14.63 -26.82,-25.8c-7.61,-11.16 -16.67,-24.64 -19.57,-26.57c-2.9,-1.92 -10.15,-1.92 -14.86,-1.92c-4.71,0 -28.271,0 -32.98,-7.7c-4.71,-7.71 -11.23,-18.49 -16.67,-22.34c-5.44,-3.85 -15.584,-13.09 -23.558,-8.08c-7.973,5 -25.732,2.31 -25.732,2.31c-0,-0 -27.907,-10.79 -39.867,-18.1c-11.96,-7.32 -46.752,-24.65 -51.464,-30.81c-4.712,-6.16 2.537,-10.78 -1.087,-19.64c-3.625,-8.85 -7.974,-21.56 -12.323,-25.41c-4.349,-3.85 -22.712,-29.39 -30.927,-38.64c-8.215,-9.24 -19.329,-17.45 -26.577,-25.15c-7.249,-7.71 -10.632,-8.73 -14.498,-23.11c-3.866,-14.37 -13.53,-29.26 -18.846,-25.67c-5.315,3.6 -6.765,11.3 -4.349,15.92c2.416,4.62 22.712,34.4 27.061,39.02c4.349,4.62 9.182,13.86 12.081,21.56c2.9,7.7 15.464,23.11 16.913,28.75c1.45,5.65 1.45,12.33 -2.416,9.76c-3.866,-2.57 -13.047,-11.81 -18.363,-17.46c-5.315,-5.65 -7.731,-16.94 -8.698,-19.51c-0.967,-2.57 -10.631,-8.73 -15.946,-11.81c-5.316,-3.08 -1.45,-12.32 -3.867,-17.45c-2.416,-5.14 -8.698,-10.27 -14.98,-17.46c-6.282,-7.19 -13.53,-33.89 -18.362,-39.02c-4.833,-5.13 -5.316,-10.78 -14.981,-16.94c-9.664,-6.16 -22.229,-10.27 -25.611,-14.89c-3.383,-4.62 -29.357,-52.37 -34.068,-58.53c-4.712,-6.16 -6.524,-23.877 -7.611,-29.268c-1.087,-5.391 5.074,-46.978 3.624,-58.53c-1.45,-11.552 2.174,-19.254 -1.45,-27.725c-3.624,-8.471 -5.678,-26.441 -11.235,-30.292c-5.557,-3.851 -29.235,-14.889 -34.31,-19.254c-5.073,-4.363 -10.872,-21.82 -5.798,-20.536c5.074,1.283 8.698,1.406 11.114,-0.068c2.416,-1.473 -16.128,-21.496 -21.745,-25.924c-5.618,-4.429 -13.41,-14.248 -15.766,-16.173c-2.356,-1.926 -8.698,3.08 -7.611,5.198c1.088,2.118 5.074,17.328 4.712,18.483c-0.363,1.156 -9.242,0.578 -13.048,-5.391c-3.805,-5.968 -4.711,-13.284 -5.255,-20.216c-0.543,-6.931 0,-6.353 4.712,-12.129c4.711,-5.776 -10.752,-21.051 -17.518,-35.427c-6.765,-14.375 -27.061,-29.778 -35.276,-37.479c-8.214,-7.702 -39.142,-23.618 -39.142,-23.618c-0,0 -52.672,11.809 -66.686,-1.027c-14.013,-12.835 -20.779,-17.969 -23.195,-12.835c-2.416,5.134 1.45,11.295 -9.665,15.402c-11.114,4.108 -28.027,-0.513 -33.343,3.594c-5.315,4.108 -13.53,-2.053 -17.879,11.296c-4.349,13.348 -28.994,32.346 -38.176,37.48c-9.181,5.134 -14.98,6.16 -27.061,15.402c-12.081,9.242 -20.779,12.836 -32.86,20.024c-12.08,7.188 -38.659,20.024 -48.323,23.617c-9.665,3.594 -14.497,-2.053 -8.698,-7.188c5.798,-5.134 17.396,-8.215 21.262,-11.808c3.866,-3.595 15.947,-8.215 22.712,-14.376c6.765,-6.161 22.712,-11.809 28.994,-17.457c6.282,-5.647 28.994,-11.808 30.927,-18.483c1.933,-6.675 8.215,-18.483 4.832,-22.591c-3.383,-4.107 -4.832,5.648 -14.014,4.108c-9.181,-1.54 -17.396,1.54 -22.711,2.054c-5.316,0.513 -7.732,10.781 -10.632,3.08c-2.899,-7.701 -0,-24.131 -6.282,-26.698c-6.282,-2.567 -7.731,4.621 -16.913,-1.54c-9.181,-6.161 -21.745,-12.322 -25.128,-18.997c-3.383,-6.675 -4.349,-17.97 1.933,-24.131c6.282,-6.161 10.631,-23.617 16.913,-21.564c6.282,2.054 17.397,3.594 19.813,2.054c2.416,-1.54 12.564,-1.027 13.53,-3.594c0.967,-2.567 7.248,-5.134 2.899,-16.429c-4.349,-11.296 -5.798,-2.568 -12.08,-2.568c-6.282,-0 -18.846,3.595 -27.061,1.541c-8.216,-2.054 -23.196,-3.594 -24.162,-8.729c-0.967,-5.134 0,-6.161 -5.799,-8.215c-5.799,-2.053 -11.114,-7.701 -5.316,-9.241c5.799,-1.54 11.598,-7.188 14.981,-8.215c3.383,-1.026 9.181,-5.648 13.047,-5.648c3.866,0 14.98,-0.513 16.43,1.541c1.45,2.054 6.766,6.161 9.182,6.161c2.416,0 17.879,2.054 18.362,-3.08c0.484,-5.135 -5.315,-9.756 -12.08,-13.863c-6.766,-4.107 -20.78,-10.782 -26.095,-15.916c-5.316,-5.135 -28.028,-5.648 -24.645,-13.863c3.383,-8.214 9.182,-11.808 19.813,-12.322c10.631,-0.513 21.262,-5.647 26.578,-15.403c5.315,-9.755 3.865,-15.916 15.946,-15.916c12.081,-0 31.411,-9.241 37.692,-11.808c6.283,-2.568 11.598,-11.296 16.913,-9.242c5.316,2.054 9.665,5.134 23.679,9.242c14.014,4.107 21.746,12.835 39.625,13.349c17.88,0.513 38.659,-6.161 51.706,-1.541c13.048,4.621 49.773,17.457 61.371,20.024c11.597,2.567 47.357,8.215 47.357,8.215c0,0 8.698,3.08 23.678,-2.567c14.98,-5.648 51.223,-14.376 57.505,-17.457c6.282,-3.08 11.597,9.242 17.88,5.648c6.282,-3.594 4.832,-17.97 9.181,-16.43c4.349,1.54 14.98,10.782 19.329,17.456c4.35,6.675 10.148,-7.187 13.531,-9.241c3.383,-2.053 2.9,14.376 9.181,13.349c6.283,-1.027 7.249,-11.809 16.431,-8.728c9.181,3.08 36.725,15.403 46.39,16.943c9.665,1.54 30.444,2.053 37.209,3.594c6.765,1.54 14.497,9.755 10.148,11.809c-4.35,2.053 -17.88,7.188 -8.215,11.295c9.664,4.107 35.759,4.621 43.974,3.594c8.215,-1.027 22.229,-2.567 28.511,8.215c6.282,10.781 12.564,14.376 12.564,14.376c0,-0 -3.866,-31.319 0,-33.887c3.866,-2.567 7.249,-16.943 14.98,-14.375c7.732,2.567 14.014,6.674 18.363,11.808c4.349,5.135 31.41,12.323 36.726,12.836c5.315,0.514 35.276,0 35.276,0l13.047,-7.701c-0,-0 21.746,-1.027 24.162,-1.027c2.416,0 14.013,1.027 14.013,-5.134c0,-6.162 -12.08,-23.618 -12.08,-23.618c0,-0 -12.081,-1.027 -13.047,-11.809c-0.967,-10.781 8.094,-35.169 7.369,-41.33c-0.725,-6.161 -3.987,-18.098 -3.262,-29.651c0.725,-11.551 4.349,-22.718 6.523,-22.718c2.175,0 22.468,0 30.448,0.77c7.97,0.77 23.189,-3.851 25.37,-0.77c2.17,3.08 10.87,12.707 -1.09,17.328c-11.961,4.62 -19.21,9.626 -24.65,13.477c-5.43,3.85 -15.581,8.471 -11.96,15.788c3.63,7.316 12.33,10.012 14.86,19.253c2.54,9.242 4.23,22.206 7.61,28.367c3.39,6.161 13.53,5.647 14.5,10.782c0.97,5.134 0.97,27.211 5.799,22.077c4.831,-5.134 4.831,-21.05 10.151,-17.97c5.31,3.081 14.01,3.081 13.53,7.701c-0.48,4.621 -1.93,18.484 -0.48,21.564c1.45,3.081 15.46,6.161 17.87,3.081c2.42,-3.081 7.25,-12.836 9.67,-21.564c2.42,-8.728 -0,-21.05 -0,-21.05c-0,-0 -15.95,-3.081 -29.96,-13.863c-14.01,-10.782 -20.781,-25.157 -19.33,-31.832c1.45,-6.675 3.38,-22.077 14.5,-31.832c11.11,-9.756 21.26,-17.457 27.06,-17.457c5.8,-0 19.33,4.621 14.98,7.188c-4.35,2.567 -16.43,5.134 -16.43,11.296c0,6.161 -2.42,22.077 0.96,27.724c3.39,5.648 13.05,13.863 11.12,1.541c-1.93,-12.323 -1.93,-19.511 1.45,-24.645c3.38,-5.134 3.38,-15.916 11.6,-14.889c8.21,1.027 16.43,-7.702 21.74,-5.134c5.32,2.567 10.63,6.161 12.08,9.755c1.45,3.594 4.83,-8.215 6.28,-9.242c1.45,-1.027 5.8,4.107 15.47,4.107c9.66,0 15.46,-2.567 24.64,2.054c9.18,4.621 17.4,5.134 10.63,10.782c-6.76,5.648 -8.45,11.039 -3.62,13.093c4.83,2.053 3.14,-5.135 10.87,-0c7.73,5.134 11.84,9.241 13.53,11.808c1.69,2.567 1.45,10.269 5.56,11.809c4.11,1.54 7.73,-7.701 13.53,-5.134c5.8,2.567 20.78,10.525 23.92,14.632c3.14,4.108 14.02,4.108 19.57,6.931c5.56,2.824 13.77,12.836 17.16,19.254c3.38,6.418 8.94,13.862 5.07,14.119c-3.87,0.257 -19.81,-4.364 -16.91,2.824c2.9,7.188 3.5,16.044 10.75,17.969c7.25,1.926 22.11,5.777 30.81,8.472c8.69,2.695 7.24,5.006 12.68,10.012c5.44,5.006 14.86,6.931 18.85,8.856c3.98,1.926 9.06,4.236 5.8,9.242c-3.27,5.006 -6.89,9.242 -11.96,15.788c-5.08,6.546 -8.34,14.247 -13.78,12.707c-5.43,-1.54 -5.8,-1.925 -15.22,-11.167c-9.42,-9.242 -15.95,-16.943 -22.11,-16.173c-6.16,0.77 -11.96,6.547 -10.87,10.397c1.09,3.851 16.67,15.788 24.65,24.26c7.97,8.471 16.3,13.862 15.22,23.874c-1.09,10.011 -0.36,25.414 -6.89,17.713c-6.52,-7.702 -9.06,-11.167 -17.03,-13.478c-7.98,-2.31 -15.95,-9.241 -18.85,-8.471c-2.9,0.77 -4.53,1.155 -4.71,4.236c-0.18,3.08 17.94,15.017 21.2,17.905c3.26,2.888 7.43,4.621 7.98,8.279c0.54,3.658 -9.07,5.199 -10.88,5.199c-1.81,0 -12.86,-6.161 -17.94,-8.087c-5.07,-1.925 -14.13,-3.273 -17.39,-6.546c-3.27,-3.273 -18.13,-12.707 -21.02,-15.788c-2.9,-3.08 -5.8,-9.627 -8.52,-12.129c-2.72,-2.503 -9.61,-8.087 -11.42,-8.857c-1.81,-0.77 -12.14,-2.31 -16.49,-0.77c-4.35,1.54 -17.21,7.701 -23.56,6.354c-6.34,-1.348 -13.95,-0.578 -13.95,-9.434c0,-8.857 3.62,-15.018 9.6,-14.248c5.98,0.77 15.77,1.348 19.03,1.54c3.26,0.193 15.22,-0.192 17.04,-2.695c1.81,-2.503 -2.9,-10.397 1.08,-14.055c3.99,-3.658 22.65,-11.36 21.93,-21.179c-0.72,-9.819 -6.95,-14.825 -9.36,-16.365c-2.42,-1.54 -0.73,2.31 -7.73,5.134c-7.01,2.824 -20.78,11.808 -25.86,12.579c-5.07,0.77 -13.04,-0.514 -13.29,-5.134c-0.24,-4.621 -2.41,-18.484 5.56,-18.997c7.97,-0.514 17.64,-1.54 17.64,-4.364c0,-2.824 1.21,-4.364 -0.48,-7.958c-1.7,-3.594 -11.84,-8.215 -15.23,-11.039c-3.38,-2.824 -0.96,0.77 -15.7,-2.053c-14.74,-2.825 -18.12,-3.081 -25.13,-2.311c-7.01,0.77 -17.64,-6.931 -21.74,-3.337c-4.11,3.594 -10.15,6.931 -1.21,8.984c8.94,2.054 15.46,5.392 11.59,8.472c-3.86,3.081 -17.15,7.958 -14.25,12.836c2.9,4.877 9.66,7.188 10.63,14.632c0.97,7.445 -12.68,26.442 -22.47,27.982c-9.79,1.54 -21.75,-8.472 -28.99,-5.391c-7.25,3.08 -13.78,6.931 -9.43,11.937c4.35,5.006 -0.72,3.466 -3.62,15.788c-2.9,12.322 1.09,17.328 -9.06,19.638c-10.15,2.311 -19.94,-0 -23.92,3.851c-3.99,3.851 -46.997,41.459 -50.621,53.268c-3.624,11.808 -10.631,39.277 -2.416,41.587c8.215,2.31 12.807,-5.134 16.917,3.337c4.1,8.472 1.45,24.645 11.35,25.415c9.91,0.77 8.939,-5.648 20.06,-0c11.11,5.648 36.96,25.928 44.45,29.008c7.49,3.081 13.29,7.445 25.62,6.675c12.32,-0.77 21.5,-2.824 22.71,1.797c1.21,4.621 -2.18,38.763 10.39,49.032c12.56,10.268 14.74,15.916 22.47,10.012c7.73,-5.905 15.7,-7.188 10.63,-16.173c-5.08,-8.985 -13.77,-16.173 -11.36,-26.442c2.42,-10.268 18.36,-11.295 22.96,-19.253c4.59,-7.958 13.28,-12.836 9.66,-27.212c-3.62,-14.376 -18.6,-18.996 -19.57,-29.522c-0.97,-10.524 9.66,-4.877 9.42,-16.429c-0.24,-11.552 -2.41,-25.03 -3.86,-37.737c-1.45,-12.707 -2.9,-22.719 3.98,-21.948c6.89,0.77 17.4,6.16 21.39,7.701c3.98,1.54 11.96,-14.248 20.29,-8.087c8.34,6.162 21.39,15.403 29.72,22.719c8.34,7.317 17.4,0.385 19.21,7.702c1.81,7.316 -3.99,6.931 0.36,19.638c4.35,12.708 4.71,24.645 16.31,26.57c11.6,1.925 23.92,10.012 29.36,-5.776c5.43,-15.788 9.06,-27.725 12.32,-27.725c3.26,-0 9.42,10.012 17.03,28.88c7.62,18.868 8.34,20.408 12.69,31.191c4.35,10.781 4.35,15.403 20.66,26.184c16.31,10.782 23.56,16.173 33.7,22.334c10.15,6.161 22.47,6.931 18.85,19.254c-3.63,12.321 -2.18,17.713 -9.42,19.253c-7.25,1.54 -25.37,5.391 -33.35,14.632c-7.97,9.242 -13.77,9.242 -30.44,8.472c-16.67,-0.77 -32.62,-11.552 -48.57,0.77c-15.94,12.322 -10.14,14.633 -28.99,25.415c-18.85,10.781 -18.85,23.104 -18.85,23.104c-0,0 15.23,-14.633 23.2,-18.484c7.97,-3.85 22.47,-16.173 31.89,-13.862c9.43,2.31 21.75,1.54 18.12,6.931c-3.62,5.391 -16.67,10.012 -13.77,16.943c2.9,6.931 7.98,3.851 13.05,11.552c5.07,7.701 11.6,18.484 18.85,15.403c7.24,-3.081 14.49,-18.483 20.29,-13.092c5.8,5.39 15.95,7.701 8.7,14.632c-7.25,6.931 -21.75,8.472 -32.62,13.092c-10.87,4.621 -15.22,14.633 -23.19,16.943c-7.98,2.311 -16.68,-3.85 -23.2,-9.241c-6.52,-5.391 -15.95,0 -23.92,4.621c-7.97,4.62 -26.09,13.092 -19.57,26.184c6.52,13.092 2.9,19.254 -11.6,17.714c-14.5,-1.541 -44.7,13.348 -48.08,37.478c-3.38,24.13 2.9,28.24 3.87,38.51c0.96,10.27 2.9,9.75 -12.57,16.94c-15.46,7.19 -26.58,16.43 -40.11,30.29c-13.53,13.87 -26.09,17.97 -14.49,34.4c11.59,16.43 17.88,50.32 13.53,58.02c-4.35,7.7 -12.08,3.59 -16.92,-4.11c-4.83,-7.7 -7.73,-34.91 -12.08,-42.61c-4.35,-7.7 -10.15,-12.32 -16.43,-11.81c-6.28,0.51 -13.04,3.08 -19.33,-3.08c-6.28,-6.16 -17.88,-7.19 -20.78,-5.65c-2.89,1.54 -24.64,-2.05 -22.711,6.16c1.941,8.22 8.221,13.86 4.351,13.86c-3.861,0 -14.01,-3.08 -20.78,-5.13c-6.76,-2.05 -9.66,-13.86 -23.68,-5.13c-14.01,8.72 -28.507,6.16 -37.688,17.45c-9.182,11.3 -16.43,14.89 -13.047,21.57c3.383,6.67 14.497,5.64 6.282,11.8c-8.215,6.17 -13.531,35.43 -6.766,53.91c6.766,18.49 11.115,38.51 28.994,41.59c17.885,3.08 40.105,3.6 44.454,-9.24c4.351,-12.84 11.601,-31.83 25.131,-31.83c13.53,0 20.78,-5.65 23.2,3.08c2.41,8.73 3.86,15.4 -0.97,15.4c-4.83,-0 -8.21,10.27 -6.28,14.38c1.93,4.1 -3.38,12.32 -5.8,14.37c-2.42,2.06 -7.25,24.65 1.45,25.67c8.7,1.03 15.46,-1.02 16.91,-4.62c1.45,-3.59 3.38,-9.24 8.22,-5.64c4.83,3.59 -0.97,5.13 6.28,7.18c7.25,2.06 13.05,-5.64 16.43,-1.02c3.38,4.62 4.83,16.43 3.86,27.21c-0.96,10.78 -7.73,27.72 -0.48,38.5c7.25,10.79 10.63,21.57 18.36,21.06c7.74,-0.52 18.37,-12.33 28.52,-7.71c10.14,4.62 20.29,16.43 28.02,14.89c7.73,-1.54 6.77,-28.75 19.33,-30.29c12.57,-1.54 26.1,-1.03 29.48,-8.73c3.38,-7.7 8.21,-12.83 11.11,-11.81c2.9,1.03 8.7,5.65 6.29,7.71c-2.42,2.05 -7.25,8.21 -5.32,9.24c1.93,1.02 11.11,2.05 12.56,1.02c1.45,-1.02 0.49,-15.4 9.67,-11.29c9.18,4.11 7.25,6.67 12.56,12.83c5.32,6.17 9.67,10.27 17.4,8.73c7.73,-1.54 21.99,-6.16 33.58,-5.39c11.6,0.77 28.27,10.78 28.27,15.4c-0,4.62 5.8,17.72 15.95,16.18c10.15,-1.54 19.57,-0 25.37,13.09c5.8,13.09 14.5,18.48 22.47,17.71c7.97,-0.77 18.85,-10.01 30.44,-0.77c11.6,9.24 21.02,13.86 26.1,24.65c5.07,10.78 11.6,32.34 17.39,39.27c5.8,6.93 13.78,10.79 26.1,16.95c12.32,6.16 18.12,12.32 34.07,16.94c15.94,4.62 43.49,9.24 50.74,13.09c7.25,3.85 22.47,9.24 28.27,16.94c5.8,7.71 19.57,-1.54 23.92,9.25c4.35,10.78 10.87,27.72 5.8,36.96c-5.08,9.24 -19.58,7.7 -23.2,23.88c-3.62,16.17 -10.15,19.25 -18.12,26.18c-7.97,6.93 -15.22,-10.01 -9.42,13.09c5.79,23.11 2.17,34.66 1.45,46.21c-0.73,11.55 -1.45,23.88 -9.43,33.12c-7.97,9.24 -8.7,17.71 -13.05,26.18c-4.34,8.47 -6.52,14.64 -15.94,13.86c-9.42,-0.76 -22.47,1.55 -27.55,5.4c-5.07,3.85 10.15,5.39 -10.87,8.47c-21.02,3.08 -34.07,-0.77 -31.89,13.86c2.17,14.63 5.8,26.18 0.72,35.43c-5.07,9.24 -19.57,40.81 -31.17,53.14c-11.59,12.32 -18.84,23.87 -26.82,27.72c-7.97,3.85 0.73,20.02 -16.67,16.94c-17.39,-3.08 -29.72,-14.63 -33.34,-12.32c-3.62,2.31 19.57,20.79 15.22,31.58c-4.35,10.78 -13.77,22.33 -23.92,26.18c-10.15,3.85 -28.99,-3.85 -31.17,6.93c-2.17,10.78 0.73,27.73 -7.97,30.81c-8.7,3.08 -32.62,-6.16 -32.62,-0.77c-0,5.39 -10.87,19.251 2.18,20.021c13.04,0.77 14.49,4.619 12.32,6.159c-2.18,1.54 -13.77,1.16 -15.59,8.861c-1.81,7.7 4.72,11.939 -1.08,17.71c-5.8,5.779 -13.41,5.779 -17.04,7.699c-3.62,1.93 -17.76,-1.15 -8.7,11.17c9.07,12.32 22.48,9.24 18.13,20.02c-4.35,10.79 -0,19.64 -14.14,25.03c-14.13,5.39 -23.19,19.64 -23.92,33.5Z" style="fill:none;stroke:#fff;stroke-width:4px;"></path>
    <path d="M1394.66,894.657c3.24,6.028 11.6,9.627 19.57,5.776c7.97,-3.85 15.22,-3.85 18.48,3.466c3.26,7.316 6.16,11.167 11.96,6.161c5.8,-5.006 6.53,0 14.86,2.695c8.34,2.696 15.95,6.932 11.96,-6.546c-3.98,-13.477 -0.72,-15.017 -9.78,-19.638c-9.06,-4.621 -11.96,3.466 -11.6,-9.242c0.36,-12.707 -6.89,-10.396 -12.69,-11.937c-5.79,-1.54 -13.41,-0.385 -8.33,-10.012c5.07,-9.626 11.24,-17.328 4.53,-16.942c-6.71,0.384 -11.78,0.384 -14.68,8.856c-2.9,8.472 -10.15,6.546 -13.05,19.253c-2.9,12.707 -7.25,14.633 -10.51,18.869c-3.26,4.235 -3.62,3.85 -0.72,9.241Z" style="fill:none;stroke:#fff;stroke-width:4px;"></path>
    <path d="M651.928,398.305c-7.2,13.349 -11.115,5.648 -11.115,18.483c-0,12.836 -0,23.104 9.182,32.859c9.181,9.755 20.778,11.295 26.094,6.675c5.316,-4.621 9.665,-5.135 17.396,-16.943c7.732,-11.809 5.799,-9.242 16.431,-16.43c10.631,-7.188 4.832,-10.782 20.295,-12.322c15.464,-1.54 33.344,6.161 25.128,-4.621c-8.214,-10.782 -10.148,-11.809 -22.228,-15.403c-12.081,-3.593 -18.363,-3.08 -30.927,-5.647c-12.564,-2.567 -12.564,-1.027 -27.544,-3.594c-14.981,-2.567 -27.061,-3.594 -26.095,3.08c0.966,6.675 5.716,9.537 3.383,13.863Z" style="fill:none;stroke:#fff;stroke-width:4px;"></path>
    <path d="M717.406,449.647c-3.781,-6.983 -7.49,-14.376 -0.967,-17.199c6.524,-2.824 7.49,-10.526 17.638,-8.986c10.148,1.541 14.256,1.027 20.779,-0.77c6.524,-1.797 3.383,-13.092 12.564,-11.038c9.182,2.053 14.014,2.31 18.605,6.675c4.591,4.363 12.08,19.253 16.43,13.348c4.349,-5.904 0.241,-18.226 7.49,-15.916c7.248,2.311 10.873,13.092 18.363,21.821c7.49,8.728 3.141,-4.107 6.524,-17.713c3.382,-13.606 12.322,-20.281 18.604,-20.794c6.282,-0.514 17.638,-4.364 19.571,-0.257c1.933,4.108 0.966,6.675 -2.9,12.836c-3.865,6.161 -6.281,10.011 -0.482,17.456c5.798,7.445 8.939,6.675 8.214,17.713c-0.725,11.039 -10.873,11.039 6.041,19.254c16.913,8.214 30.202,11.295 30.927,15.402c0.724,4.108 -12.323,2.567 -14.014,9.242c-1.691,6.674 12.806,13.349 8.457,17.457c-4.35,4.107 -32.619,1.797 -37.935,-3.081c-5.315,-4.878 -18.846,-12.322 -25.127,-7.958c-6.283,4.364 -25.612,19.51 -39.625,16.943c-14.015,-2.567 -27.062,-2.311 -34.069,-8.215c-7.007,-5.904 -24.644,-5.904 -30.443,-12.579c-5.799,-6.674 -17.397,-12.065 -10.148,-12.835c7.248,-0.77 26.094,-2.824 38.175,-3.081c12.081,-0.257 19.33,-3.081 19.088,-7.188c-0.242,-4.107 -33.827,3.337 -49.773,-0.513c-15.947,-3.851 -20.477,-17.235 -21.987,-20.024Z" style="fill:none;stroke:#fff;stroke-width:4px;"></path>
    <path d="M932.203,506.637c-0.362,-6.534 6.041,-3.08 9.906,-8.471c3.866,-5.391 0,-12.579 5.316,-13.606c5.315,-1.027 9.181,-1.284 12.323,2.567c3.14,3.851 7.248,2.054 12.322,10.782c5.074,8.728 13.531,9.755 7.49,12.322c-6.04,2.567 -7.732,3.149 -19.088,4.142c-11.356,0.993 -8.698,6.383 -16.671,3.046c-7.974,-3.337 -11.356,-6.418 -11.598,-10.782Z" style="fill:none;stroke:#fff;stroke-width:4px;"></path>
    <path d="M904.175,428.597c8.457,0 15.464,2.053 16.672,7.188c1.208,5.134 -0.483,6.674 8.94,12.836c9.423,6.16 13.53,5.904 17.155,1.283c3.624,-4.621 6.282,-3.851 12.08,-6.418c5.799,-2.567 8.699,-7.188 8.215,-12.065c-0.483,-4.878 -4.107,-6.675 -8.456,-10.526c-4.349,-3.85 -15.705,-2.053 -9.665,-7.444c6.041,-5.391 10.39,-4.878 10.873,-10.782c0.483,-5.904 1.208,-14.632 -7.249,-12.579c-8.456,2.054 -14.255,1.027 -24.403,3.08c-10.148,2.054 -19.329,-2.72 -15.705,3.775c3.624,6.494 14.256,7.521 13.772,12.655c-0.483,5.134 -0.241,12.836 -7.007,9.755c-6.765,-3.08 -7.006,-7.958 -14.738,-5.648c-7.732,2.311 -8.94,14.89 -0.484,14.89Z" style="fill:none;stroke:#fff;stroke-width:4px;"></path>
    <path d="M1376.54,169.061c5.22,7.634 -15.71,5.904 -26.34,13.606c-10.63,7.701 -12.08,13.862 -22.23,14.376c-10.15,0.513 -5.8,4.107 -13.05,9.241c-7.24,5.134 -15.46,6.161 -25.12,11.809c-9.67,5.648 -21.27,4.108 -24.17,13.349c-2.9,9.242 -12.08,14.376 -23.19,15.403c-11.12,1.027 -14.5,5.134 -20.78,6.161c-6.28,1.027 -27.06,-6.674 -26.09,2.054c0.96,8.728 0.48,15.402 9.18,13.862c8.69,-1.54 12.56,4.621 10.14,7.702c-2.41,3.08 -8.21,17.969 -16.43,17.969c-8.21,0 -27.06,-8.728 -23.19,0.514c3.87,9.241 -11.11,14.889 -9.18,18.483c1.93,3.594 14.01,-1.54 14.49,6.161c0.49,7.701 -5.79,14.889 -17.87,15.403c-12.09,0.513 -12.57,-9.755 -27.55,-4.621c-14.98,5.134 -24.64,0.513 -33.34,2.053c-8.7,1.541 -20.78,2.054 -31.9,1.541c-11.11,-0.514 -18.36,4.621 -23.19,-2.054c-4.83,-6.674 -10.63,-12.835 3.87,-13.862c14.49,-1.027 26.09,2.567 22.22,-3.594c-3.86,-6.161 -16.43,-19.51 -5.79,-20.024c10.63,-0.513 9.66,4.621 20.77,8.215c11.12,3.594 15.95,8.728 19.82,6.161c3.86,-2.567 -4.35,-5.134 -6.29,-12.836c-1.93,-7.701 -12.56,-3.593 -19.81,-9.241c-7.25,-5.648 -14.98,-5.648 -5.31,-11.295c9.66,-5.648 16.43,-12.836 24.16,-10.269c7.73,2.567 17.39,2.054 10.15,-4.107c-7.25,-6.161 -13.53,-16.943 -16.92,-10.269c-3.38,6.675 -8.7,11.296 -16.91,14.889c-8.21,3.595 -10.15,1.027 -14.01,11.296c-3.87,10.268 4.83,15.916 -11.6,13.863c-16.43,-2.054 -30.93,2.053 -40.11,-7.702c-9.18,-9.755 -28.511,-14.889 -12.564,-18.997c15.944,-4.107 22.714,-7.188 18.364,-9.241c-4.35,-2.054 -19.813,5.134 -29.961,0c-10.148,-5.135 -24.645,-9.242 -18.847,-18.997c5.799,-9.755 7.567,-11.295 13.69,-21.564c6.123,-10.269 3.707,-17.456 14.338,-14.889c10.63,2.567 18.36,7.188 23.68,14.376c5.31,7.188 16.43,6.161 20.289,8.728c3.87,2.567 12.081,10.782 16.431,7.702c4.35,-3.081 6.29,-15.917 12.57,-3.595c6.28,12.323 5.8,22.077 8.7,20.024c2.9,-2.054 -1.45,-15.403 5.31,-16.429c6.77,-1.027 14.02,-0.514 18.85,-1.027c4.83,-0.514 10.15,3.593 20.29,9.241c10.15,5.648 0.49,-9.755 7.25,-11.295c6.77,-1.541 18.37,1.027 25.13,-4.107c6.77,-5.135 14.5,1.026 16.43,-8.215c1.93,-9.242 0.48,-14.376 -2.9,-11.809c-3.38,2.567 -12.56,8.214 -18.36,10.782c-5.8,2.567 -20.78,0.513 -26.58,4.62c-5.8,4.108 -3.38,7.188 -19.33,4.622c-15.95,-2.568 -12.56,-13.863 -17.88,-14.89c-5.31,-1.027 -6.76,10.782 -25.61,3.594c-14.11,-5.38 -24.64,-11.808 -25.13,-14.889c-0.48,-3.081 -11.6,-6.675 -0.48,-10.269c11.11,-3.594 3.38,1.54 21.74,-5.134c18.37,-6.675 20.3,-7.188 37.7,-9.755c17.39,-2.567 31.41,-8.215 35.76,-8.215c4.34,-0 1.45,-0.513 11.59,-1.026c10.15,-0.514 7.73,-9.242 32.86,-9.756c25.13,-0.513 34.8,-1.027 65.72,-4.107c30.93,-3.081 55.57,-1.54 67.66,2.567c12.08,4.108 45.42,10.782 54.12,10.782c8.7,-0 10.87,1.284 14.74,6.931Z" style="fill:none;stroke:#fff;stroke-width:4px;"></path>
    <path d="M1048.54,349.53c4.83,5.598 7.25,7.316 18.12,5.776c10.88,-1.541 21.39,-3.466 29.72,-3.466c8.34,0 17.04,-3.851 27.55,-3.081c10.51,0.771 16.31,-3.465 25,1.926c8.7,5.391 16.31,7.316 15.59,13.862c-0.73,6.546 -9.79,14.248 -14.86,14.633c-5.08,0.385 -18.85,-0.77 -29.36,-1.926c-10.51,-1.155 -19.93,-0.384 -30.44,1.156c-10.51,1.54 -12.69,1.54 -25.37,-0.77c-12.69,-2.311 -20.301,-0.386 -27.911,-0.77c-7.609,-0.386 -18.839,1.154 -20.289,-7.702c-1.45,-8.856 3.98,-11.937 -0.73,-18.483c-4.71,-6.546 1.09,-6.546 -6.16,-8.857c-7.25,-2.31 -19.934,-1.925 -25.37,-3.85c-5.437,-1.926 -17.034,-3.466 -16.309,-13.478c0.725,-10.012 9.06,-11.937 15.221,-9.626c6.162,2.31 3.987,6.161 14.497,7.316c10.511,1.155 16.311,-0.771 20.661,3.851c4.35,4.62 8.33,-2.696 14.859,5.005c6.521,7.702 11.591,13.863 15.581,18.484Z" style="fill:none;stroke:#fff;stroke-width:4px;"></path>
    <path d="M768.749,381.49c6.104,7.782 6.886,-1.54 22.833,-3.08c15.947,-1.54 22.108,-6.546 25.732,-8.087c3.624,-1.54 11.96,-0 18.846,-0.385c6.886,-0.385 15.642,0.309 21.383,-1.54c15.568,-5.015 18.079,-29.726 2.538,-28.88c-3.692,0.201 -11.598,3.465 -14.135,4.235c-2.537,0.771 -12.322,-1.155 -13.048,-3.465c-0.724,-2.31 -2.174,-12.707 -5.436,-15.788c-3.262,-3.081 -10.873,-5.391 -12.685,1.541c-1.812,6.931 -2.174,16.172 0.725,18.868c2.899,2.695 2.537,12.322 -2.537,10.782c-5.074,-1.541 -10.873,2.016 -18.846,-3.42c-7.973,-5.437 -7.973,-11.213 -13.772,-14.293c-5.799,-3.081 -16.672,-11.167 -27.907,-6.932c-11.235,4.236 -20.658,9.242 -20.658,18.099c-0,8.856 -13.772,17.712 -4.349,18.483c9.423,0.77 11.96,-6.161 21.021,-1.541c9.06,4.621 18.845,-3.08 22.47,2.311c3.624,5.391 -5.799,8.472 -2.175,13.092Z" style="fill:none;stroke:#fff;stroke-width:4px;"></path>
    <path d="M678.989,347.732c5.034,3.405 12.322,6.162 16.913,1.284c4.591,-4.877 5.557,-6.418 9.423,-9.242c3.866,-2.823 8.698,-9.754 11.839,-10.268c3.141,-0.513 11.839,6.675 18.363,1.54c6.524,-5.134 12.081,-5.904 10.631,-12.065c-1.45,-6.161 0.483,-9.242 -3.383,-11.552c-3.865,-2.31 -7.49,-4.108 -13.289,-1.54c-5.798,2.567 -10.758,-1.284 -16.614,3.337c-5.856,4.621 -8.272,4.621 -16.487,10.268c-8.215,5.648 -21.504,-0 -24.886,9.499c-3.383,9.498 2.174,15.146 7.49,18.739Z" style="fill:none;stroke:#fff;stroke-width:4px;"></path>
    <path d="M776.843,300.241c-6.199,2.55 -2.416,11.038 6.766,10.782c9.181,-0.257 18.121,0.513 23.678,-4.107c5.557,-4.622 5.316,-10.526 8.94,-14.633c3.624,-4.108 6.041,-11.296 4.832,-13.863c-1.208,-2.566 -3.141,-5.391 -7.731,-6.674c-4.591,-1.284 -11.598,0.77 -14.497,0.77c-2.9,0 -22.954,1.284 -23.437,6.931c-0.483,5.648 6.765,9.755 12.322,7.445c5.557,-2.31 17.88,-6.161 17.638,-1.284c-0.241,4.878 0.533,9.242 -6.982,10.525c-7.515,1.284 -14.039,1.027 -21.529,4.108Z" style="fill:none;stroke:#fff;stroke-width:4px;"></path>
    <path d="M969.533,367.243c0,8.981 8.336,4.621 13.409,8.471c5.075,3.851 15.947,6.161 18.488,0.77c2.53,-5.391 5.07,-11.552 1.45,-16.558c-3.628,-5.006 -1.82,-10.396 -13.776,-7.701c-11.96,2.695 -15.584,0.77 -18.484,5.006c-2.899,4.236 -1.087,6.161 -1.087,10.012Z" style="fill:none;stroke:#fff;stroke-width:4px;"></path>
    <path d="M926.042,366.857c9.728,7.383 16.671,4.236 20.295,0.771c3.625,-3.466 7.612,-1.925 7.612,-12.322c-0,-10.397 4.711,-12.208 -2.537,-19.774c-7.249,-7.566 -10.511,-9.137 -19.934,-7.389c-9.423,1.748 -9.423,-4.028 -17.396,3.673c-7.974,7.702 -6.524,14.633 -14.135,7.702c-7.611,-6.932 -14.497,-15.819 -18.846,-11.375c-4.349,4.443 -6.161,5.984 0,11.375c6.161,5.391 11.598,3.851 15.585,12.707c3.986,8.857 16.671,-6.089 22.47,0.806c5.799,6.895 4.349,11.901 6.886,13.826Z" style="fill:none;stroke:#fff;stroke-width:4px;"></path>
    <path d="M864.792,262.889c5.3,6.57 10.873,2.311 15.222,6.161c4.349,3.851 6.161,9.627 0.362,8.472c-5.798,-1.155 -14.134,-1.925 -11.96,1.925c2.175,3.851 3.987,13.863 10.148,10.397c6.161,-3.466 9.061,-8.857 15.222,-5.006c6.161,3.851 12.322,-2.695 17.034,4.236c4.711,6.931 6.161,9.627 10.873,10.012c4.711,0.385 15.947,1.925 16.309,-4.236c0.362,-6.161 1.45,-9.627 -8.698,-16.558c-10.148,-6.931 -17.034,-7.316 -25.37,-12.707c-8.336,-5.391 0.725,-6.161 -16.309,-8.086c-17.034,-1.926 -27.182,0 -22.833,5.39Z" style="fill:none;stroke:#fff;stroke-width:4px;"></path>
    <path d="M948.875,274.441c-1.942,3.183 -6.524,5.776 1.812,10.782c8.335,5.006 4.711,8.087 10.51,12.708c5.799,4.62 1.087,6.931 10.873,8.471c9.785,1.54 18.846,7.702 24.645,3.466c5.795,-4.236 10.145,-3.851 14.135,-7.701c3.99,-3.852 1.09,-11.938 -4.71,-8.087c-5.8,3.851 -11.962,7.316 -17.036,5.006c-5.074,-2.311 -11.235,1.54 -10.148,-2.311c1.087,-3.85 5.799,-2.31 6.523,-8.086c0.726,-5.776 1.088,-8.856 -4.349,-11.167c-5.436,-2.311 -5.798,1.54 -15.584,-2.695c-9.785,-4.236 -15.249,-2.718 -16.671,-0.386Z" style="fill:none;stroke:#fff;stroke-width:4px;"></path>
    <path d="M923.143,240.17c0,6.015 -0.726,6.162 7.248,7.702c7.973,1.54 12.685,8.856 14.134,4.235c1.45,-4.62 4.35,-8.856 0.363,-12.707c-3.987,-3.851 -6.316,-8.086 -9.863,-8.857c-3.547,-0.77 -11.882,6.547 -11.882,9.627Z" style="fill:none;stroke:#fff;stroke-width:4px;"></path>
    <path d="M1177.93,1295.64c3.15,9.23 11.23,5.78 17.76,3.47c6.52,-2.31 14.49,-1.16 10.51,-6.16c-3.99,-5.01 -7.98,-7.71 -14.14,-7.71c-6.16,-0 -15.58,6.17 -14.13,10.4Z" style="fill:none;stroke:#fff;stroke-width:4px;"></path>
    <path d="M1103.63,1250.97c2.9,3.08 8.7,-5.39 17.4,-8.47c8.69,-3.08 10.87,-7.31 16.67,-3.08c5.8,4.24 12.32,6.93 17.03,10.4c4.71,3.46 14.14,2.69 18.12,8.08c3.99,5.4 10.51,2.31 12.33,3.47c1.81,1.16 -5.44,9.63 -1.09,10.01c4.35,0.39 8.7,2.31 19.93,0.77c11.24,-1.54 17.76,0 18.49,-4.23c0.72,-4.24 0,-6.17 -8.7,-8.86c-8.7,-2.7 -11.96,-1.16 -18.85,-7.7c-6.88,-6.55 -7.18,-4.62 -17.18,-11.55c-10,-6.94 -13.62,-8.48 -25.22,-10.02c-11.6,-1.54 -16.31,-5.39 -25.01,-1.54c-8.7,3.85 -11.24,4.24 -17.76,9.25c-6.52,5 -9.25,10.19 -6.16,13.47Z" style="fill:none;stroke:#fff;stroke-width:4px;"></path>
    <path d="M1224.32,1287.94c6.03,8.7 9.06,6.93 17.03,5.01c7.98,-1.93 7.61,3.85 12.32,5c4.72,1.16 11.24,-5.39 16.68,-6.54c5.43,-1.16 9.42,-2.32 18.84,0c9.42,2.31 10.87,5.39 17.76,3.85c6.89,-1.54 7.61,1.92 15.95,2.31c8.33,0.38 11.6,-0.49 14.86,-4.1c3.26,-3.6 5.43,-12.46 -1.82,-9.77c-7.24,2.7 -7.97,6.17 -16.3,3.08c-8.34,-3.08 -8.7,-1 -17.76,-3.58c-9.06,-2.58 -5.44,0.5 -18.49,-6.04c-13.04,-6.55 -11.59,-12.32 -25,-10.01c-13.41,2.31 -17.04,-1.54 -22.84,3.85c-5.8,5.39 -16.31,9.62 -11.23,16.94Z" style="fill:none;stroke:#fff;stroke-width:4px;"></path>
    <path d="M1289.55,267.125c12.94,1.963 17.4,0.77 25.37,-3.851c7.98,-4.62 18.85,-9.241 13.78,-16.942c-5.08,-7.702 -16.68,-3.081 -21.75,-10.783c-5.07,-7.701 -4.35,-12.321 10.15,-16.943c14.5,-4.62 24.64,-16.172 35.52,-13.862c10.87,2.311 14.49,7.701 15.94,3.851c1.45,-3.851 -7.97,-20.024 5.8,-21.564c13.77,-1.54 26.1,-2.31 39.14,-9.241c13.05,-6.932 33.35,-10.012 38.42,-6.932c5.07,3.08 0.73,10.782 7.97,12.322c7.25,1.541 1.45,-13.862 9.43,-11.552c7.97,2.31 10.15,3.851 16.67,9.242c6.52,5.391 0.72,-17.713 8.7,-16.943c7.97,0.77 26.09,10.782 42.04,13.863c15.95,3.08 28.27,10.781 28.27,6.161c-0,-4.621 -15.95,-7.702 -13.05,-17.714c2.9,-10.011 -0,-23.874 16.67,-22.334c16.67,1.541 28.27,2.311 39.87,5.391c11.6,3.081 10.87,-16.942 34.07,-16.942c23.19,0 46.39,-4.622 66.68,-1.541c20.3,3.081 23.92,5.391 39.87,9.242c15.95,3.85 21.74,-2.311 39.14,9.241c17.4,11.552 31.9,3.851 34.07,9.242c2.17,5.391 2.17,10.012 -5.8,10.782c-7.97,0.77 -6.52,3.85 -29.72,5.391c-23.19,1.54 -52.91,-5.391 -68.13,2.31c-15.23,7.702 -23.2,14.633 -23.2,14.633c-0,0 30.44,-8.472 44.22,-7.701c13.77,0.77 28.27,-0.771 37.69,0.77c9.42,1.54 5.8,6.931 1.45,9.241c-4.35,2.31 9.42,0.77 15.95,-4.621c6.52,-5.39 13.77,-13.862 19.57,-10.011c5.8,3.85 10.14,3.08 6.52,9.241c-3.62,6.161 -17.4,15.403 -15.22,21.564c2.17,6.161 13.05,-3.851 21.02,-10.011c7.97,-6.162 6.52,-15.403 18.12,-7.702c11.6,7.702 18.85,-1.54 30.44,-6.931c11.6,-5.391 46.39,-4.621 52.19,3.08c5.8,7.701 9.43,8.472 -5.8,14.633c-15.22,6.161 -20.29,9.241 -34.06,10.782c-13.78,1.54 -21.02,-1.541 -12.33,5.39c8.7,6.932 -2.17,13.863 -2.17,13.863c0,0 -13.77,-6.931 -17.4,6.161c-3.62,13.093 -8.7,10.012 -10.87,20.794c-2.17,10.782 -6.52,2.31 -11.6,14.633c-5.07,12.321 -9.42,18.483 -4.35,21.563c5.08,3.081 5.8,-7.564 14.5,3.149c8.7,10.714 22.47,2.242 23.92,16.875c1.45,14.632 2.9,30.035 -5.07,24.644c-7.98,-5.391 -21.02,-23.104 -21.02,-12.322c0,10.782 -2.9,17.713 4.34,28.495c7.25,10.782 -1.45,18.483 -4.34,20.793c-2.9,2.311 -2.18,-9.241 -5.08,8.472c-2.9,17.713 13.05,27.725 -5.07,27.725c-18.12,-0 -29,-14.633 -24.65,-3.851c4.35,10.782 9.43,10.012 11.6,19.254c2.18,9.241 -2.9,13.496 2.9,23.69c5.8,10.196 13.77,20.977 5.07,19.437c-8.69,-1.54 -23.19,-9.241 -28.27,-11.552c-5.07,-2.31 -20.29,-8.471 -7.97,3.851c12.32,12.322 17.4,12.322 18.12,16.943c0.73,4.621 -2.9,10.782 -13.77,13.862c-10.87,3.081 -34.79,12.391 -47.11,18.518c-12.33,6.126 -14.5,2.276 -26.82,13.058c-12.33,10.782 -27.55,0 -36.25,16.173c-8.7,16.173 -9.42,19.253 -21.74,23.104c-12.32,3.851 -20.3,-0.771 -27.55,10.782c-7.25,11.552 -19.64,-9.242 -23.59,7.701c-3.95,16.943 -12.65,39.277 -17,49.289c-4.35,10.012 -2.9,22.334 -7.97,34.656c-5.08,12.322 -9.42,24.644 -19.57,15.403c-10.15,-9.242 -7.98,-23.874 -23.92,-19.254c-15.95,4.621 -25.37,0 -29,-12.322c-3.62,-12.322 -15.22,-24.644 -25.37,-36.196c-10.14,-11.552 -28.27,-44.668 -28.27,-56.99c0,-12.322 -3.62,-29.265 7.25,-36.197c10.88,-6.931 28.27,-4.621 25.37,-16.173c-2.9,-11.552 2.9,-13.092 -7.25,-20.023c-10.14,-6.931 -7.97,12.322 -18.12,11.552c-10.15,-0.77 -28.27,-4.621 -26.09,-16.943c2.17,-12.322 15.94,-13.863 19.57,-20.024c3.62,-6.161 2.17,-19.253 -2.18,-18.483c-4.34,0.77 -9.42,17.414 -15.94,12.173c-6.53,-5.242 -6.53,-18.334 -0,-28.346c6.52,-10.011 -1.45,-13.092 -6.53,-21.564c-5.07,-8.471 -8.69,-15.216 -14.49,-26.091c-5.8,-10.875 -14.5,-32.439 -29,-33.979c-14.49,-1.54 -42.76,-10.012 -55.81,-6.931c-13.05,3.08 -24.65,8.471 -31.89,6.161c-7.25,-2.311 -26.82,-0.77 -29.72,-12.323c-2.9,-11.551 -20.3,-16.942 -17.4,-20.023c2.9,-3.081 10.87,-3.081 27.55,-2.31c16.67,0.77 21.02,6.161 25.37,-0.771c4.34,-6.931 -3.63,-7.701 -15.23,-7.701c-11.59,0 -17.39,0.77 -32.62,-6.931c-15.22,-7.702 -32.61,-3.08 -23.19,-11.552c9.42,-8.471 39.87,-17.713 50.01,-16.173Z" style="fill:none;stroke:#fff;stroke-width:4px;"></path>
    <path d="M1794.29,569.789c-3.97,5.272 2.42,14.375 10.63,10.781c8.22,-3.593 14.5,-5.647 14.98,-2.567c0.49,3.08 -1.45,7.188 -6.28,7.702c-4.83,0.513 -12.56,1.54 -11.11,5.134c1.45,3.594 10.63,4.107 15.46,5.647c4.83,1.541 -2.42,5.648 -2.9,11.809c-0.48,6.161 8.22,1.027 16.91,4.107c8.7,3.081 10.15,9.756 21.27,7.188c11.11,-2.567 13.04,-9.241 20.29,-8.728c7.25,0.513 15.47,-6.161 21.75,-8.215c6.28,-2.053 14.98,-0.451 17.88,-7.67c2.9,-7.219 4.83,-14.407 0.48,-18c-4.35,-3.595 -8.7,0 -11.11,-6.675c-2.42,-6.675 2.41,-15.403 -7.74,-12.836c-10.14,2.567 -7.73,7.188 -21.74,7.188c-14.01,0 -14.01,-12.322 -24.16,-2.053c-10.15,10.268 -12.08,16.429 -16.43,12.322c-4.35,-4.108 -5.8,-20.537 -14.02,-15.403c-8.21,5.134 -10.14,8.215 -13.53,7.188c-3.38,-1.027 -8.69,0.513 -10.63,3.081Z" style="fill:none;stroke:#fff;stroke-width:4px;"></path>
    <path d="M1088.77,576.334c-3.59,6.101 2.18,6.932 -1.45,15.018c-3.62,8.086 -3.99,11.167 -7.25,15.018c-3.26,3.851 -8.33,9.241 -1.45,8.857c6.89,-0.386 11.24,-6.932 14.14,-2.696c2.9,4.236 -3.26,12.707 3.62,11.167c6.89,-1.54 13.41,-4.236 15.59,-9.242c2.17,-5.006 1.08,-10.396 7.97,-6.546c6.89,3.851 15.22,10.012 21.02,8.857c5.8,-1.156 14.13,-4.621 13.05,-6.932c-1.09,-2.31 -5.44,-6.931 -13.41,-11.167c-7.98,-4.235 -10.88,-4.62 -18.85,-11.937c-7.97,-7.316 -6.88,-4.621 -14.5,-8.856c-7.61,-4.236 -16.67,-4.621 -18.48,-1.541Z" style="fill:none;stroke:#fff;stroke-width:4px;"></path>
    <path d="M3520.64,1921.38c11.64,-1.14 13.05,-3.08 23.92,-6.17c10.88,-3.08 28.27,-8.47 36.25,-2.3c7.97,6.16 21.02,4.62 26.09,16.94c5.08,12.32 6.52,13.09 11.6,20.79c5.07,7.7 6.52,10.78 12.32,3.85c5.8,-6.93 14.5,-29.26 19.57,-26.18c5.08,3.08 2.9,13.09 -0,20.79c-2.9,7.7 -13.77,22.34 -7.97,22.34c5.8,0 13.77,-22.34 18.85,-13.1c5.07,9.24 2.17,10.78 7.24,21.57c5.08,10.78 0.73,20.02 18.12,24.64c17.4,4.62 23.92,15.4 32.62,6.93c8.7,-8.47 15.23,-5.39 18.85,-1.54c3.62,3.85 10.87,-1.54 19.57,-6.16c8.7,-4.62 23.2,-1.54 26.82,-6.93c3.62,-5.39 -0,-19.25 5.07,-29.27c5.08,-10.01 11.6,-16.94 19.57,-28.49c7.98,-11.55 15.95,-34.66 17.4,-52.37c1.45,-17.71 1.45,-25.41 -1.45,-40.05c-2.9,-14.63 -0.72,-17.71 -13.77,-29.26c-13.05,-11.55 -16.67,-20.8 -21.75,-25.42c-5.07,-4.62 -10.14,-15.4 -13.04,-20.79c-2.9,-5.39 -29,-11.55 -30.45,-18.48c-1.45,-6.93 -8.69,-39.28 -13.77,-48.52c-5.07,-9.24 -10.15,-8.47 -13.05,-13.09c-2.9,-4.62 -13.77,-44.67 -18.12,-46.21c-4.35,-1.54 -9.42,19.25 -7.97,29.26c1.45,10.01 2.9,29.27 -1.45,34.66c-4.35,5.39 -7.97,23.1 -14.5,22.33c-6.52,-0.77 -3.62,-13.09 -12.32,-13.09c-8.7,-0 -9.42,3.85 -18.12,-0.77c-8.7,-4.62 -21.75,-7.7 -22.47,-13.09c-0.73,-5.39 13.05,-17.71 10.87,-29.27c-2.17,-11.55 -3.62,-14.63 -15.95,-14.63c-12.32,-0 -18.84,-2.31 -28.26,-0c-9.43,2.31 -13.05,-7.7 -21.03,2.31c-7.97,10.01 -2.89,13.86 -10.14,25.42c-7.25,11.55 -12.33,16.17 -15.95,16.17c-3.63,0 -10.87,-21.57 -20.3,-20.03c-9.42,1.54 -26.82,10.02 -24.64,20.8c2.17,10.78 -1.45,22.33 -5.8,22.33c-4.35,-0 -16.67,-16.17 -18.85,-3.08c-2.17,13.09 -3.62,24.65 -13.77,29.27c-10.15,4.62 -37.69,11.55 -47.11,17.71c-9.43,6.16 -36.25,9.24 -37.7,16.94c-1.45,7.7 -14.49,39.28 -9.42,49.29c5.08,10.01 13.77,9.24 15.22,26.19c1.45,16.94 20.3,43.12 13.05,51.59c-7.25,8.48 0,22.34 -4.35,29.27c-4.35,6.93 -1.45,13.86 10.87,14.63c12.33,0.77 24.65,2.31 30.45,-4.62c5.8,-6.93 16.67,-13.09 26.09,-10.78c9.43,2.31 13.05,9.24 25.37,2.31c12.32,-6.93 25.96,-23.49 37.69,-24.64Z" style="fill:none;stroke:#fff;stroke-width:4px;"></path>
    <path d="M1998.94,841.004c2.53,9.124 16.31,0.77 21.38,-4.62c5.08,-5.391 6.89,-9.242 16.31,-6.161c9.43,3.08 16.31,3.465 22.84,0.77c6.52,-2.696 19.199,-2.311 19.199,-9.242c-0,-6.931 -8.329,-9.242 -5.069,-11.167c3.26,-1.925 10.51,-4.236 8.7,-10.782c-1.81,-6.546 -13.411,-5.776 -14.86,-9.241c-1.45,-3.466 -1.09,-13.478 -7.25,-17.713c-6.16,-4.236 -14.13,-13.093 -15.95,-18.869c-1.81,-5.776 -13.41,-10.396 -15.22,-14.632c-1.81,-4.236 16.67,-16.173 13.41,-22.334c-3.26,-6.161 -22.11,-1.926 -24.28,-6.931c-2.17,-5.006 16.67,-14.248 14.13,-19.254c-2.53,-5.006 -16.67,4.621 -21.74,4.621c-5.08,-0 -9.79,6.931 -11.24,10.011c-1.45,3.081 -7.61,-9.626 -12.68,-5.39c-5.08,4.235 -10.15,9.241 -8.7,14.632c1.45,5.391 12.32,13.862 11.96,19.639c-0.36,5.776 -5.8,9.242 0,12.322c5.8,3.08 10.15,-0 14.14,4.235c3.98,4.236 0,5.006 2.89,8.857c2.9,3.851 5.8,-1.54 10.88,2.31c5.07,3.851 10.51,5.006 8.33,10.397c-2.17,5.392 2.18,8.472 -6.52,8.087c-8.7,-0.385 -12.69,1.155 -10.87,6.931c1.81,5.776 12.32,15.788 5.07,16.943c-7.25,1.155 -11.96,4.621 -9.78,8.472c2.17,3.85 17.03,5.005 10.51,9.626c-6.53,4.621 -17.4,11.937 -15.59,18.483Z" style="fill:none;stroke:#fff;stroke-width:4px;"></path>
    <path d="M1949.29,813.28c2.48,3.812 12.68,10.012 17.4,2.31c4.71,-7.701 3.98,-10.012 10.51,-8.471c6.52,1.54 11.23,1.54 11.96,-4.236c0.72,-5.776 -2.9,-15.788 1.08,-21.564c3.99,-5.776 9.06,-5.391 6.16,-12.707c-2.9,-7.317 -2.53,-13.478 -10.87,-13.862c-8.33,-0.386 -16.67,-6.162 -18.84,1.154c-2.18,7.317 1.81,12.323 -2.54,13.093c-4.35,0.77 -19.21,-3.851 -17.76,6.161c1.45,10.011 9.06,12.707 7.25,18.483c-1.81,5.776 -7.61,14.633 -4.35,19.639Z" style="fill:none;stroke:#fff;stroke-width:4px;"></path>
    <path d="M2628.84,1019.55c-0.84,10.28 -1.94,17.45 9.18,23.1c11.11,5.65 9.66,12.84 24.64,9.76c14.98,-3.08 26.1,3.08 28.51,-6.16c2.42,-9.25 0.97,-15.92 -2.41,-25.16c-3.38,-9.24 -16.43,-12.84 -10.63,-21.566c5.79,-8.728 16.91,3.076 18.36,-6.161c1.45,-9.241 -5.32,-24.131 -14.01,-21.564c-8.7,2.567 -6.29,-1.54 -14.98,-11.295c-8.7,-9.755 -17.4,-12.322 -14.5,-18.997c2.9,-6.674 3.86,-16.429 14.98,-12.836c11.11,3.595 21.74,12.323 18.84,0.514c-2.9,-11.809 -1.44,-20.023 -7.73,-24.644c-6.28,-4.621 -12.08,-10.782 -22.23,-7.702c-10.14,3.081 -19.32,10.269 -27.54,17.457c-8.22,7.188 -22.23,4.107 -18.85,16.429c3.39,12.322 11.12,21.564 10.63,28.752c-0.48,7.188 6.29,9.755 11.12,20.023c4.83,10.269 11.11,15.917 8.21,22.59c-2.89,6.68 -11.09,11.27 -11.59,17.46Z" style="fill:none;stroke:#fff;stroke-width:4px;"></path>
    <path d="M2420.56,910.702c8.16,-6.07 12.63,-10.718 15.35,-7.252c2.71,3.465 1.81,6.995 8.51,7.252c6.71,0.256 9.61,0.449 11.06,3.337c1.45,2.888 -6.35,2.311 -7.98,6.931c-1.63,4.621 5.8,6.931 7.43,11.167c1.63,4.236 4.53,6.354 7.25,6.161c2.72,-0.192 5.07,-5.006 7.97,-7.316c2.9,-2.311 6.53,-0.77 6.35,-4.428c-0.18,-3.658 -10.33,-6.161 -8.16,-10.59c2.18,-4.428 6.53,-8.471 12.69,-11.552c6.16,-3.08 6.16,-6.161 13.41,-3.658c7.25,2.503 14.49,0.578 10.69,9.434c-3.81,8.857 -11.42,11.552 -4.35,18.676c7.07,7.124 18.12,11.552 22.83,16.558c4.71,5.006 17.58,12.13 19.39,17.328c1.81,5.199 9.24,16.365 -2.17,19.446c-11.42,3.08 -19.94,9.819 -26.82,4.813c-6.89,-5.006 -22.29,-0.77 -29.54,-6.353c-7.25,-5.584 -7.07,-14.633 -21.75,-9.242c-14.67,5.391 -19.93,11.552 -31.16,11.167c-11.24,-0.385 -26.28,4.236 -30.09,-0.77c-3.8,-5.006 -11.05,-13.285 -8.15,-17.52c2.9,-4.236 10.51,-11.167 9.79,-18.099c-0.73,-6.931 -4.53,-8.471 3.08,-12.515c7.61,-4.043 10.51,-8.663 10.33,-13.862c-0.19,-5.198 2.83,-8.215 4.04,-9.113Z" style="fill:none;stroke:#fff;stroke-width:4px;"></path>
    <path d="M2692.14,468.516c7.69,10.498 26.09,5.391 29.36,2.31c3.26,-3.08 -11.96,-16.173 -13.78,-26.57c-1.81,-10.397 -1.08,-15.017 4.35,-21.948c5.44,-6.932 40.96,-45.824 49.66,-52.37c8.69,-6.546 14.85,-18.098 31.53,-16.943c16.67,1.155 59.07,-6.161 63.06,-13.862c3.99,-7.701 6.16,-16.558 0,-20.794c-6.16,-4.235 -15.59,-0.77 -23.2,3.466c-7.61,4.236 -23.92,17.713 -37.33,16.173c-13.41,-1.54 -29.35,-3.466 -35.88,1.925c-6.52,5.391 -29.72,8.856 -38.05,19.639c-8.34,10.781 -15.59,24.259 -25.73,32.73c-10.15,8.472 0.72,10.782 -6.16,15.403c-6.89,4.621 -18.85,6.161 -18.13,16.558c0.73,10.396 -11.23,6.931 -9.78,16.173c1.45,9.241 3.99,10.781 12.32,15.402c8.34,4.621 15.22,9.242 17.76,12.708Z" style="fill:none;stroke:#fff;stroke-width:4px;"></path>
    <path d="M3130.92,218.606c-1.15,6.084 1.45,4.108 -5.8,9.242c-7.25,5.134 -14.98,9.755 -9.67,16.943c5.32,7.188 15.47,7.188 19.82,6.675c4.34,-0.514 8.21,5.647 12.56,11.295c4.35,5.648 9.66,2.053 17.4,2.053c7.73,-0 27.54,9.756 36.72,7.188c9.18,-2.566 16.43,-2.566 14.02,-10.781c-2.42,-8.215 5.79,-15.403 1.93,-20.537c-3.87,-5.135 -17.4,-2.567 -25.61,-4.621c-8.22,-2.054 2.9,-12.835 0,-18.483c-2.9,-5.648 -11.12,-12.836 -22.23,-16.43c-11.12,-3.594 -20.3,7.702 -27.06,9.755c-6.77,2.054 -11.6,5.135 -12.08,7.701Z" style="fill:none;stroke:#fff;stroke-width:4px;"></path>
    <path d="M3212.1,291.513c1.99,6.35 8.7,4.107 14.98,-0c6.28,-4.108 11.11,-2.567 22.23,-2.567c11.11,0 17.88,2.567 25.13,-2.568c7.25,-5.134 16.43,-10.268 3.86,-17.456c-12.56,-7.188 -14.01,-13.862 -27.06,-14.376c-13.05,-0.513 -12.56,-3.594 -18.84,5.135c-6.29,8.728 -23.2,22.59 -20.3,31.832Z" style="fill:none;stroke:#fff;stroke-width:4px;"></path>
    <path d="M3566.79,1126.98c4.47,6.13 10.15,-15.02 14.98,-20.66c4.84,-5.65 8.22,-2.57 13.53,-2.57c5.32,0 15.95,-16.43 18.85,-16.43c2.9,-0 8.7,12.84 14.5,8.21c5.8,-4.62 3.38,-21.05 11.11,-20.53c7.73,0.51 18.85,-2.06 23.2,4.1c4.35,6.17 -3.39,33.89 7.25,32.35c10.63,-1.54 0.96,-29.99 5.31,-36.56c4.35,-6.57 8.7,-10.67 10.15,-21.97c1.45,-11.29 -6.28,-17.97 0.96,-24.64c7.25,-6.68 13.05,-10.79 11.12,-20.54c-1.93,-9.756 -4.83,-15.404 -7.25,-25.159c-2.42,-9.755 -8.21,-17.97 0,-16.943c8.22,1.027 10.15,12.322 17.88,8.215c7.73,-4.107 7.25,-14.89 13.53,-14.89c6.28,0 14.98,5.135 17.88,-1.026c2.9,-6.161 8.22,-15.403 11.6,-19.51c3.38,-4.108 7.73,-11.809 7.73,-11.809c0,0 -21.26,17.456 -29.96,14.889c-8.7,-2.567 -15.95,-2.053 -23.2,-10.268c-7.24,-8.215 -21.74,-22.077 -18.36,-10.782c3.38,11.295 11.6,13.862 4.83,21.564c-6.76,7.701 -16.91,8.728 -17.88,15.402c-0.96,6.675 2.42,3.081 -0.48,19.511c-2.9,16.429 -2.41,22.077 -6.28,33.376c-3.87,11.29 -5.8,28.23 -16.43,30.8c-10.63,2.57 -21.75,-0.51 -22.23,7.19c-0.48,7.7 4.83,16.94 -6.28,15.4c-11.12,-1.54 -18.85,-8.21 -29.96,1.03c-11.12,9.24 -11.6,6.67 -23.2,16.94c-11.6,10.27 -15.94,20.54 -11.11,31.32c4.83,10.78 5.31,10.01 8.21,13.99Z" style="fill:none;stroke:#fff;stroke-width:4px;"></path>
    <path d="M3160.39,1449.8c0.51,8.1 2.9,12.83 14.5,18.99c11.6,6.16 18.36,12.84 21.26,23.11c2.9,10.27 7.25,17.97 15.95,31.83c8.7,13.86 8.21,19 22.23,35.43c14.01,16.43 22.23,28.75 31.41,29.77c9.18,1.03 24.16,8.73 22.71,-6.16c-1.45,-14.89 -7.25,-22.59 -1.45,-28.23c5.8,-5.65 7.25,-10.27 -0.97,-15.41c-8.21,-5.13 -11.59,1.54 -17.39,-3.08c-5.8,-4.62 -9.18,-5.65 -9.18,-15.91c-0,-10.27 -3.39,-8.22 -14.98,-16.43c-11.6,-8.22 -21.75,-13.35 -26.58,-21.57c-4.83,-8.21 -9.67,-18.99 -24.65,-26.18c-14.98,-7.19 -33.34,-13.86 -32.86,-6.16Z" style="fill:none;stroke:#fff;stroke-width:4px;"></path>
    <path d="M3274.44,1612.04c-0,-13.9 22.71,-4.62 28.02,-12.84c5.32,-8.21 9.19,-6.67 15.95,-2.05c6.77,4.62 16.91,5.65 23.68,3.59c6.76,-2.05 19.41,3.08 26.86,3.6c7.45,0.51 8.42,8.21 14.21,11.81c5.8,3.59 18.85,5.64 28.51,4.62c9.67,-1.03 36.73,2.05 43.01,1.54c6.28,-0.52 48.81,1.02 57.51,-4.11c8.7,-5.13 21.26,-2.96 22.71,4.17c1.45,7.12 -4.35,17.91 -21.75,20.47c-17.39,2.57 -24.16,14.89 -29.96,14.38c-5.8,-0.51 -3.86,-6.16 6.77,-15.4c10.63,-9.24 19.33,-15.41 13.53,-14.38c-5.8,1.03 -21.75,1.03 -44.46,3.08c-22.71,2.06 -31.41,-1.54 -49.77,-1.54c-18.36,-0 -20.78,-0.51 -37.21,-4.62c-16.43,-4.11 -64.39,-4.11 -76.41,-7.19c-12.02,-3.08 -21.2,-1.54 -21.2,-5.13Z" style="fill:none;stroke:#fff;stroke-width:4px;"></path>
    <path d="M3322.28,1496.52c-5.93,8.19 -10.63,20.02 0,26.7c10.63,6.67 10.14,10.26 11.59,17.97c1.45,7.7 6.77,19.51 17.4,15.4c10.63,-4.11 12.56,-11.81 22.71,-3.08c10.15,8.73 16.43,12.83 20.3,11.29c3.86,-1.54 14.01,2.57 12.56,-7.7c-1.45,-10.27 -5.31,-21.05 1.94,-25.67c7.24,-4.62 8.21,-9.24 8.21,-15.92c-0,-6.67 5.8,-10.26 10.63,-11.29c4.83,-1.03 -2.41,-9.76 -5.8,-16.43c-3.38,-6.67 -12.56,-13.86 -2.41,-19.51c10.14,-5.65 17.39,-11.3 12.56,-19c-4.83,-7.7 -15.95,-21.56 -23.68,-16.43c-7.73,5.14 -17.88,14.38 -23.19,22.08c-5.32,7.7 -7.73,14.38 -18.37,17.97c-10.63,3.59 -18.36,-1.03 -17.88,8.22c0.49,9.24 -2.41,15.4 -10.63,13.86c-8.21,-1.54 -11.11,-5.14 -15.94,1.54Z" style="fill:none;stroke:#fff;stroke-width:4px;"></path>
    <path d="M3440.67,1587.39c7.58,6.45 4.83,1.03 6.28,-10.78c1.45,-11.81 -4.83,-30.8 3.38,-26.7c8.22,4.11 10.15,11.66 10.63,18.67c0.49,7.01 -1.93,13.17 7.25,12.65c9.18,-0.51 18.85,6.68 15.47,-5.64c-3.39,-12.33 -13.05,-18.09 -15.47,-26.25c-2.41,-8.15 -5.31,-18.94 3.87,-16.88c9.18,2.05 12.56,9.75 14.5,4.11c1.93,-5.65 2.9,-9.25 -3.87,-14.89c-6.76,-5.65 -16.43,-1.03 -20.29,2.05c-3.87,3.08 -12.09,8.73 -14.99,3.59c-2.89,-5.13 -10.14,-15.91 1.94,-15.4c12.08,0.51 25.13,-0.55 29.47,-0.02c4.35,0.53 14.5,-0.49 17.4,-5.11c2.9,-4.62 8.22,-10.79 7.73,-14.89c-0.48,-4.11 -5.8,1.54 -9.66,5.64c-3.87,4.11 -10.63,9.25 -16.92,7.71c-6.28,-1.54 -20.29,-7.19 -28.99,-3.08c-8.7,4.1 -13.53,11.8 -12.08,18.99c1.45,7.19 4.81,8.22 -0.25,14.38c-5.07,6.16 -12.31,10.27 -7.96,15.4c4.34,5.14 10.14,-0.51 8.21,10.78c-1.93,11.3 1.93,23.62 4.35,25.67Z" style="fill:none;stroke:#fff;stroke-width:4px;"></path>
    <path d="M3538.77,1558.64c8.34,13.31 19.81,-3.08 26.57,0c6.77,3.08 20.78,4.11 28.03,4.11c7.25,0 14.01,-3.08 21.75,3.59c7.73,6.68 28.02,8.22 34.79,14.89c6.76,6.68 14.98,13.87 10.63,20.54c-4.35,6.67 -15.95,10.78 -12.56,15.4c3.38,4.62 14.01,1.03 20.78,1.03c6.76,0 7.24,12.84 19.81,12.32c12.56,-0.51 21.74,-13.86 32.37,-16.94c10.64,-3.08 22.72,4.62 31.41,12.83c8.7,8.22 7.25,17.81 23.2,18.41c15.95,0.59 18.36,4.7 22.71,-0.95c4.35,-5.65 -2.41,-7.7 -12.08,-15.4c-9.66,-7.7 -23.19,-15.4 -24.64,-22.59c-1.45,-7.19 1.93,-15.41 14.01,-12.84c12.08,2.57 20.3,6.8 30.44,-3.79c10.15,-10.58 17.4,-3.91 18.37,-16.23c0.96,-12.32 6.28,-8.22 -4.35,-18.48c-10.63,-10.27 -31.9,-18.49 -29.48,-11.3c2.42,7.19 3.38,3.08 13.05,10.27c9.66,7.19 15.94,13.86 8.7,15.91c-7.25,2.06 -15.47,4.11 -27.55,4.11c-12.08,0 -16.43,3.6 -27.06,3.6c-10.63,0 -15.46,1.54 -24.64,-8.22c-9.19,-9.75 -19.82,-15.92 -35.28,-18.48c-15.46,-2.57 -22.23,-7.7 -31.41,-11.3c-9.18,-3.59 -11.6,-14.37 -20.78,-5.13c-9.18,9.24 -20.3,23.62 -25.61,21.05c-5.32,-2.57 -3.87,-25.67 -17.4,-30.81c-13.53,-5.13 -32.86,-14.39 -31.41,-5.14c1.45,9.25 23.68,23.11 16.92,25.17c-6.77,2.05 -10.64,7.7 -18.37,6.67c-7.73,-1.03 -33.82,3.08 -30.92,7.7Z" style="fill:none;stroke:#fff;stroke-width:4px;"></path>
    <path d="M3469.66,1423.1c-0,5.53 10.63,4.62 14.02,2.57c3.38,-2.06 12.08,-2.57 10.63,4.62c-1.45,7.18 -0.48,14.37 3.86,15.4c4.35,1.03 13.53,6.48 16.43,0.68c2.9,-5.82 5.32,-10.44 5.8,-17.11c0.49,-6.68 -2.9,-7.7 -4.35,-17.46c-1.45,-9.75 -0.48,-11.81 -2.9,-15.91c-2.41,-4.11 -1.93,6.16 -12.08,9.75c-10.14,3.6 -7.73,0.52 -16.43,4.62c-8.69,4.11 -14.98,8.73 -14.98,12.84Z" style="fill:none;stroke:#fff;stroke-width:4px;"></path>
    <path d="M3417.96,1412.32c6,7.65 10.79,-9.24 15.54,-16.43c4.75,-7.19 4.75,-11.81 12.97,-11.3c8.21,0.52 10.15,1.03 17.39,5.65c7.25,4.62 5.8,7.7 14.98,10.27c9.19,2.57 10.64,-1.54 14.99,-6.16c4.34,-4.62 12.08,-3.6 14.97,-7.7c2.9,-4.11 4.84,-10.79 2.9,-15.92c-1.93,-5.14 -1.45,-6.68 -11.11,-12.32c-9.66,-5.65 -6.76,-12.33 -13.05,-14.89c-6.28,-2.57 -8.21,5.13 -15.46,0.51c-7.25,-4.62 -5.8,-9.24 -3.38,-17.97c2.41,-8.73 8.21,-10.78 5.8,-19.51c-2.42,-8.73 1.11,-20.02 -9.11,-20.02c-10.22,0 -17.47,-8.22 -16.02,2.05c1.45,10.27 7.25,21.05 0.96,24.13c-6.28,3.08 -16.43,4.62 -9.66,13.35c6.76,8.73 13.53,11.3 14.01,20.54c0.49,9.24 5.8,7.19 12.08,9.24c6.29,2.05 14.02,-2.05 18.85,6.67c4.83,8.73 11.11,8.73 8.7,12.33c-2.42,3.59 -5.8,13.86 -12.08,5.13c-6.28,-8.73 -13.39,-15.92 -16.84,-11.29c-3.46,4.62 0.89,13.34 -3.46,11.8c-4.35,-1.54 -21.74,-12.83 -25.61,-4.1c-3.87,8.73 -20.78,32.86 -18.36,35.94Z" style="fill:none;stroke:#fff;stroke-width:4px;"></path>
    <path d="M2575.68,1735.26c0.49,5.72 5.32,7.7 4.35,16.43c-0.97,8.73 -4.35,11.81 -7.25,19.51c-2.9,7.7 -9.18,10.78 -4.83,20.02c4.35,9.24 0.97,12.33 4.35,22.59c3.38,10.27 0,19 12.08,18.49c12.08,-0.52 14.5,8.73 22.23,-4.11c7.73,-12.84 7.73,-7.19 14.01,-30.29c6.28,-23.11 2.9,-21.57 10.15,-39.54c7.25,-17.97 14.01,-27.21 15.95,-41.07c1.93,-13.86 4.83,-13.86 -0,-25.16c-4.84,-11.29 -2.42,-21.05 -7.74,-26.7c-5.31,-5.64 -11.11,-4.1 -11.59,5.14c-0.49,9.24 -11.6,19.51 -14.98,22.59c-3.39,3.08 -7.25,14.38 -16.92,16.94c-9.66,2.57 -21.26,8.22 -19.81,25.16Z" style="fill:none;stroke:#fff;stroke-width:4px;"></path>
    <path d="M2220.5,247.358c4.33,5.741 9.19,16.43 13.05,8.728c3.87,-7.701 1.45,-15.916 6.77,-13.349c5.31,2.568 8.69,9.756 11.11,12.323c2.42,2.567 1.93,-15.916 6.28,-17.457c4.35,-1.54 9.67,7.962 14.5,10.656c4.83,2.693 8.7,-3.468 14.01,6.801c5.32,10.268 10.64,7.188 18.85,11.808c8.22,4.621 9.66,12.322 18.36,16.944c8.7,4.62 12.57,3.08 19.82,7.188c7.24,4.107 24.64,3.189 15.46,7.499c-9.18,4.309 -17.4,6.363 -24.16,9.443c-6.77,3.081 -14.5,-2.053 -17.4,-2.567c-2.9,-0.513 -6.28,-0 -8.21,-9.242c-1.94,-9.241 -4.84,-22.077 -11.6,-16.943c-6.77,5.135 -5.8,12.323 -16.43,23.104c-10.63,10.783 -12.57,25.158 -21.26,24.645c-8.7,-0.513 -16.43,-11.809 -20.78,-16.43c-4.35,-4.62 -33.35,-1.027 -14.98,-10.268c18.36,-9.241 27.54,-8.215 27.54,-15.403c-0,-7.188 3.87,-16.943 -4.35,-13.862c-8.21,3.08 -16.91,6.674 -23.19,9.241c-6.29,2.568 -8.7,9.756 -16.43,-1.027c-7.73,-10.781 -14.5,-13.862 -11.6,-22.077c2.9,-8.215 20.78,-14.889 24.64,-9.755Z" style="fill:none;stroke:#fff;stroke-width:4px;"></path>
    <path d="M2288.16,232.982c-6.28,6.675 -3.39,9.242 9.66,7.188c13.05,-2.053 9.67,4.621 12.08,9.242c2.42,4.621 3.39,8.728 14.02,8.215c10.63,-0.514 22.22,9.241 30.92,3.081c8.7,-6.162 9.67,-8.215 19.33,-12.323c9.67,-4.107 17.4,-7.188 9.18,-13.349c-8.21,-6.161 -9.18,-8.728 -18.36,-5.647c-9.18,3.08 -17.4,-0.514 -26.58,-2.054c-9.18,-1.541 -10.63,6.674 -14.98,6.161c-4.35,-0.514 -11.6,-1.54 -19.33,-4.621c-7.73,-3.081 -14.01,2.054 -15.94,4.107Z" style="fill:none;stroke:#fff;stroke-width:4px;"></path>
    <path d="M3744.14,2044.85c14.45,4.19 18.85,4.11 20.78,-6.16c1.93,-10.27 9.66,-11.29 10.63,-4.1c0.97,7.18 -1.93,19.511 -1.93,24.64c0,5.131 -4.35,8.73 -9.67,13.861c-5.31,5.139 -3.86,14.889 -15.46,9.24c-11.6,-5.641 -14.98,7.709 -18.36,-12.321c-3.39,-20.02 -13.53,-25.16 -3.39,-26.18c10.15,-1.03 12.08,-0.52 17.4,1.02Z" style="fill:none;stroke:#fff;stroke-width:4px;"></path>
    <path d="M3897.81,2127.52c7.05,10.7 20.29,10.26 25.13,-0c4.83,-10.27 12.56,-11.3 18.36,-21.57c5.8,-10.27 2.41,-19.51 11.6,-17.45c9.18,2.05 15.46,5.64 13.04,-2.06c-2.41,-7.7 -7.73,-15.4 4.35,-21.05c12.08,-5.65 24.65,-9.75 30.45,-20.02c5.8,-10.27 3.38,-16.95 9.18,-22.59c5.8,-5.65 16.43,-8.22 17.39,-19.51c0.97,-11.3 -5.79,-3.6 -14.49,-5.14c-8.7,-1.54 -14.02,-2.56 -14.5,-8.21c-0.48,-5.65 0.48,-10.27 -4.35,-8.73c-4.83,1.54 -9.66,-10.78 -15.46,-19c-5.8,-8.21 -17.88,-15.91 -19.33,-11.29c-1.45,4.62 5.8,8.21 13.05,17.97c7.24,9.75 15.46,15.4 12.08,22.08c-3.39,6.67 3.86,13.34 -2.9,18.99c-6.77,5.65 -18.85,3.6 -11.6,9.76c7.25,6.16 22.23,10.78 18.85,14.37c-3.39,3.6 -6.29,19.001 -12.08,15.41c-5.8,-3.6 -12.09,-21.06 -19.33,-12.33c-7.25,8.73 -6.29,21.05 -14.02,25.16c-7.73,4.11 -5.8,13.86 -19.81,20.541c-14.01,6.669 -31.89,17.969 -30.93,27.719c0.97,9.76 1.94,11.81 5.32,16.95Z" style="fill:none;stroke:#fff;stroke-width:4px;"></path>
    <path d="M3646.77,371.864c2.48,7.237 14.5,12.322 21.02,5.39c6.52,-6.931 11.6,-9.626 19.93,-7.701c8.34,1.926 13.77,3.466 23.2,1.54c9.42,-1.925 13.77,0 17.03,-6.546c3.26,-6.546 9.79,-6.546 2.18,-11.937c-7.61,-5.391 -11.96,-5.006 -20.66,-8.857c-8.7,-3.85 -19.57,-7.315 -22.47,-3.465c-2.9,3.851 -7.61,9.627 -10.15,8.471c-2.54,-1.155 -10.15,-11.937 -19.21,-9.241c-9.06,2.695 -15.22,10.782 -15.22,19.253c-0,8.472 2.9,8.857 4.35,13.093Z" style="fill:none;stroke:#fff;stroke-width:4px;"></path>
    <path d="M3680.47,400.358c1.16,7.375 5.44,4.236 12.69,7.702c7.25,3.465 13.05,8.856 19.21,5.776c6.16,-3.081 11.96,-1.009 7.97,-6.281c-3.99,-5.271 -4.71,-7.967 -13.77,-9.892c-9.06,-1.925 -10.87,-1.54 -17.04,-4.621c-6.16,-3.08 -9.42,5.006 -9.06,7.316Z" style="fill:none;stroke:#fff;stroke-width:4px;"></path>
    <path d="M3745.71,356.846c-3.85,2.979 -0.36,9.241 5.44,10.782c5.8,1.54 12.32,8.856 19.21,7.316c6.88,-1.54 11.96,1.54 17.03,-0.385c5.07,-1.925 10.87,-1.925 10.87,-7.316c0,-5.391 -1.45,-10.397 -7.61,-6.931c-6.16,3.465 -14.77,0 -18.8,-2.696c-4.03,-2.696 -8.38,-2.31 -13.82,-1.54c-5.43,0.77 -8.33,-2.311 -12.32,0.77Z" style="fill:none;stroke:#fff;stroke-width:4px;"></path>
    <path d="M4117.2,459.915c1.22,3.897 -1.7,7.702 5.55,5.905c7.25,-1.797 12.81,1.54 19.33,-0.257c6.529,-1.796 10.63,-0.513 13.529,-4.107c2.9,-3.594 5.321,-2.311 1.21,-6.931c-4.109,-4.621 -2.169,-11.296 -11.109,-6.931c-8.94,4.363 -10.63,4.877 -15.951,5.134c-5.309,0.256 -13.289,4.877 -12.559,7.187Z" style="fill:none;stroke:#fff;stroke-width:4px;"></path>
    <path d="M2901.38,1444.92c-0.34,-6.92 -3.38,-5.65 0.48,-11.55c3.87,-5.91 7.74,-8.22 10.88,-5.39c3.14,2.82 3.86,4.36 2.41,9.75c-1.45,5.39 -4.59,11.04 -2.65,15.4c1.93,4.37 0.48,8.99 4.58,15.66c4.11,6.68 4.35,10.27 2.9,16.18c-1.44,5.9 -7.73,8.72 -6.52,14.63c1.21,5.9 6.28,11.55 5.08,17.97c-1.21,6.42 -1.46,15.4 -8.7,14.63c-7.25,-0.77 -11.12,-3.34 -8.7,-9.75c2.41,-6.42 7.97,-15.41 5.07,-20.03c-2.9,-4.62 -11.11,-8.73 -8.7,-20.79c2.42,-12.07 6.53,-15.92 5.32,-22.08c-1.21,-6.16 -1.36,-12.81 -1.45,-14.63Z" style="fill:none;stroke:#fff;stroke-width:4px;"></path>
    <path d="M2988.85,1397.68c5.18,-3.14 6.52,7.45 12.08,13.87c5.55,6.41 11.84,11.55 10.63,20.02c-1.21,8.47 -5.32,15.15 -13.53,12.84c-8.22,-2.31 -14.5,1.28 -13.05,-9.25c1.45,-10.52 4.59,-11.03 2.66,-17.71c-1.93,-6.67 -0.49,-18.74 1.21,-19.77Z" style="fill:none;stroke:#fff;stroke-width:4px;"></path>
    <path d="M3453.23,1245.2c6.06,1.28 4.35,-15.79 7.98,-21.57c3.62,-5.77 12.92,-12.32 8.45,-16.94c-4.47,-4.62 -14.25,-10.4 -17.15,-5.78c-2.9,4.63 -10.87,10.4 -6.89,15.02c3.99,4.62 5.08,8.47 3.99,12.32c-1.09,3.85 1.81,16.56 3.62,16.95Z" style="fill:none;stroke:#fff;stroke-width:4px;"></path>
    <path d="M2596.46,1353.02c8.21,-8.33 42.04,-13.1 52.19,-20.03c10.15,-6.93 22.47,-6.16 31.89,-16.17c9.43,-10.01 18.12,-6.93 29.72,-16.17c11.6,-9.24 46.39,-42.36 44.94,-56.22c-1.45,-13.87 -7.97,-25.42 -18.12,-29.27c-10.15,-3.85 -15.22,-23.87 -19.57,-26.18c-4.35,-2.31 -10.87,21.56 -26.09,23.87c-15.23,2.31 -18.85,9.24 -28.27,-2.31c-9.43,-11.55 -3.63,-18.48 -14.5,-28.49c-10.87,-10.02 -16.67,-17.72 -20.3,-25.42c-3.62,-7.7 1.45,-26.18 10.88,-19.25c9.42,6.93 19.57,20.79 31.16,30.03c11.6,9.25 26.1,20.03 29.72,14.64c3.63,-5.39 15.22,-11.56 20.3,-8.48c5.07,3.09 4.35,16.95 18.85,19.26c14.49,2.31 23.19,-0.77 33.34,4.62c10.15,5.39 19.57,3.85 26.09,3.85c6.53,0 34.07,-2.31 40.6,6.16c6.52,8.47 10.87,22.33 18.12,29.27c7.24,6.93 10.14,21.56 22.47,18.48c12.32,-3.08 22.47,-9.24 23.92,-6.16c1.45,3.08 -6.53,53.14 6.52,65.46c13.05,12.32 28.27,91.65 43.49,97.04c15.22,5.39 26.82,-75.09 35.88,-81.64c9.06,-6.54 42.16,-50.57 50.86,-50.06c8.7,0.52 27.55,-21.05 27.06,-28.75c-0.48,-7.7 15.95,-0.51 28.51,-4.11c12.57,-3.59 15.71,-13.34 20.3,-11.8c4.59,1.54 8.21,9.75 11.84,16.68c3.62,6.93 1.69,14.89 8.94,19c7.25,4.11 4.83,7.7 7.49,14.12c2.66,6.42 1.69,33.63 11.84,34.14c10.15,0.51 13.05,-2.05 20.05,-6.16c7.01,-4.11 9.18,-5.14 11.6,-1.54c2.42,3.59 -0.48,9.5 2.66,17.2c3.14,7.7 2.53,61.74 3.98,68.28c1.45,6.55 -4.71,22.72 1.82,24.26c6.52,1.54 16.67,2.31 19.93,11.56c3.26,9.24 2.17,34.65 15.22,43.51c13.05,8.85 22.47,21.95 26.82,20.79c4.35,-1.15 6.52,-15.4 2.54,-20.02c-3.99,-4.62 -2.9,-10.01 -6.53,-16.94c-3.62,-6.94 -4.71,-12.33 -15.94,-20.8c-11.24,-8.47 -11.6,-14.63 -18.12,-21.56c-6.53,-6.93 -11.6,-11.17 -9.79,-21.18c1.81,-10.01 1.45,-25.42 6.52,-31.58c5.08,-6.16 6.89,-11.93 15.59,-6.54c8.7,5.39 11.96,11.55 18.84,20.02c6.89,8.47 3.47,15.02 11.53,20.41c8.05,5.39 5.87,14.63 19.64,5.39c13.78,-9.24 37.33,-10.01 38.78,-25.03c1.45,-15.02 5.8,-20.79 -0,-29.26c-5.8,-8.48 0.37,-25.03 -12.68,-34.28c-13.05,-9.24 -27.55,-23.87 -26.82,-31.19c0.72,-7.31 19.57,-36.19 27.91,-36.58c8.33,-0.38 18.84,-1.15 18.12,3.85c-0.73,5.01 5.8,10.79 -2.54,14.64c-8.34,3.85 -11.24,11.16 -10.15,14.63c1.09,3.46 8.7,13.48 11.24,12.71c2.53,-0.77 12.68,-4.63 13.04,-10.4c0.37,-5.78 -1.45,-16.94 0,-20.79c1.45,-3.86 -0.36,-11.56 7.62,-11.56c7.97,-0 18.36,-9.62 32.85,-12.7c14.5,-3.08 23.2,0.51 32.38,-10.79c9.18,-11.29 39.14,-49.28 45.43,-61.61c6.28,-12.32 15.46,-21.56 9.66,-41.07c-5.8,-19.51 -11.6,-35.94 -15.95,-39.53c-4.35,-3.6 -15.46,-8.22 -14.01,-14.89c1.45,-6.68 38.18,-21.57 37.21,-29.78c-0.97,-8.22 -20.3,-10.78 -25.61,-5.65c-5.32,5.13 -15.95,11.3 -15.47,4.11c0.49,-7.19 1.94,-10.27 -5.79,-12.84c-7.74,-2.57 -9.67,-12.83 -2.9,-14.37c6.76,-1.54 15.94,-2.57 18.84,-9.25c2.9,-6.67 13.53,-18.992 19.33,-15.912c5.8,3.081 6.77,6.675 3.87,11.296c-2.9,4.616 -12.08,12.326 -4.35,15.916c7.73,3.59 8.7,-0.51 15.46,-4.62c6.77,-4.11 13.05,-10.269 17.4,-5.65c4.35,4.62 10.15,10.78 5.8,12.84c-4.35,2.05 -12.57,10.27 -4.84,11.29c7.74,1.03 28.52,2.06 25.13,7.19c-3.38,5.13 -11.11,23.62 -5.31,28.75c5.8,5.14 1.45,15.92 4.35,17.97c2.9,2.06 22.95,0.26 28.02,-2.82c5.08,-3.08 11.36,-8.99 9.67,-15.4c-1.69,-6.42 -5.8,-10.02 -6.28,-17.72c-0.49,-7.7 3.62,-9.5 -3.87,-16.17c-7.49,-6.68 -17.4,-13.86 -14.98,-18.23c2.42,-4.36 22.89,-13.346 24.34,-23.551c1.45,-10.204 2,-25.029 9.43,-27.34c7.43,-2.31 17.69,5.199 32.67,2.375c14.99,-2.824 39.15,-21.05 45.67,-36.966c6.52,-15.916 36.73,-56.092 37.09,-65.333c0.36,-9.242 -3.99,-36.197 2.9,-38.507c6.88,-2.311 12.32,0.385 11.23,6.931c-1.08,6.546 1.81,13.862 1.09,20.409c-0.72,6.546 -2.17,10.781 -2.17,23.489c-0,12.707 -3.27,15.788 0.36,28.11c3.62,12.322 6.52,10.782 10.87,8.471c4.35,-2.31 11.24,1.155 9.42,-3.851c-1.81,-5.005 -14.13,-20.023 -11.23,-26.954c2.9,-6.931 6.39,-19.254 11.53,-15.403c5.14,3.851 10.94,11.937 12.39,6.931c1.45,-5.006 2.54,-0.385 -4.71,-12.322c-7.25,-11.937 -14.14,-32.345 -12.33,-48.903c1.82,-16.559 -1.08,-28.88 -6.88,-28.11c-5.8,0.77 -9.06,31.19 -12.32,31.19c-3.27,-0 -0.73,-16.558 -5.44,-20.023c-4.71,-3.466 -9.06,-9.242 -14.13,-9.242c-5.08,-0 -12.33,2.695 -19.21,8.086c-6.89,5.391 -12.33,5.776 -13.77,1.156c-1.46,-4.621 1.44,-10.783 -4.35,-13.093c-5.8,-2.31 -15.23,-1.925 -14.14,-6.161c1.09,-4.236 68.5,-75.473 78.65,-78.169c10.14,-2.695 44.58,5.391 58.35,0.77c13.77,-4.62 17.03,-5.776 21.38,-6.931c4.35,-1.155 26.1,-2.31 27.55,4.236c1.44,6.546 12.68,8.472 22.83,5.006c10.15,-3.465 7.97,-10.397 11.96,-16.558c3.98,-6.161 19.21,-26.185 26.45,-30.035c7.25,-3.851 32.99,-9.242 36.25,-4.621c3.26,4.621 -6.53,20.023 -0,21.949c6.52,1.925 11.6,-8.087 19.93,-11.552c8.34,-3.466 11.24,-3.466 12.32,-7.702c1.09,-4.236 -0.36,-15.787 5.44,-16.943c5.8,-1.155 11.6,-1.925 11.6,2.311c-0,4.235 -7.61,9.241 -6.89,15.788c0.73,6.546 -3.26,10.397 -6.88,13.862c-3.63,3.466 -8.34,-1.925 -17.76,11.937c-9.43,13.863 -14.5,20.409 -25.74,28.88c-11.23,8.471 -15.58,7.701 -23.19,12.707c-7.61,5.006 1.09,9.627 -8.7,19.639c-9.78,10.012 -17.4,10.397 -12.68,32.73c4.71,22.334 6.52,63.152 13.04,63.537c6.53,0.385 26.46,-11.552 26.1,-21.564c-0.36,-10.012 1.45,-17.713 5.8,-15.788c4.35,1.926 0,-11.552 7.97,-15.402c7.97,-3.851 20.3,-1.156 22.11,-5.391c1.81,-4.236 -13.05,-16.173 -5.44,-21.179c7.61,-5.006 17.04,1.925 15.95,-7.317c-1.09,-9.241 -6.53,-15.017 -5.44,-20.793c1.09,-5.776 -9.42,-5.776 -6.52,-11.167c2.9,-5.391 6.88,-16.943 11.23,-18.098c4.35,-1.155 -0.72,-16.173 9.79,-17.328c10.51,-1.156 9.42,4.236 21.38,1.155c11.96,-3.081 12.69,-10.012 19.21,-8.856c6.52,1.154 15.22,-3.081 19.57,2.31c4.35,5.391 8.7,11.167 13.05,7.316c4.35,-3.851 6.52,-13.862 28.27,-23.489c21.74,-9.627 31.53,-27.34 42.76,-24.26c11.24,3.081 21.39,8.472 26.1,5.392c4.71,-3.081 11.6,-10.397 6.52,-17.713c-5.071,-7.317 -6.52,-13.478 -9.781,-16.944c-3.259,-3.465 -9.79,-4.62 -13.049,-5.776c-3.26,-1.155 -11.6,-2.31 -10.87,-7.316c0.72,-5.006 11.229,-6.931 16.669,-5.006c5.431,1.925 21.381,5.006 23.921,-1.155c2.539,-6.161 -3.631,-19.254 4.349,-22.719c7.971,-3.466 14.491,-1.925 15.581,6.161c1.09,8.087 14.14,5.391 18.12,6.161c3.989,0.77 6.16,4.236 10.88,9.627c4.709,5.391 9.06,3.466 15.94,10.397c6.89,6.931 17.4,4.236 18.85,2.695c1.45,-1.54 -3.26,-13.092 3.62,-18.098c6.89,-5.006 13.77,2.311 20.3,-3.851c6.52,-6.161 15.22,-7.701 6.52,-14.247c-8.7,-6.547 -17.39,-13.092 -26.45,-16.558c-9.06,-3.466 -18.85,-5.391 -19.58,0.77c-0.72,6.161 5.08,12.322 0.37,11.167c-4.72,-1.155 -11.24,0.77 -12.33,-4.236c-1.08,-5.005 5.8,-9.241 -2.17,-16.558c-7.97,-7.316 -57.26,-36.581 -71.04,-40.047c-13.77,-3.465 -65.23,-12.322 -78.28,-12.322c-13.05,-0 -8.7,8.857 -8.34,17.328c0.37,8.471 -0.36,11.167 -9.78,8.471c-9.42,-2.695 -15.58,-14.632 -23.56,-16.557c-7.97,-1.925 -5.43,-2.695 -26.46,-0.77c-21.02,1.925 -59.43,5.39 -64.51,-0.771c-5.07,-6.161 10.15,-10.781 -0.72,-18.868c-10.87,-8.086 -33.35,-18.098 -48.2,-13.862c-14.86,4.236 -22.47,10.782 -32.62,7.701c-10.15,-3.081 -25.01,-11.167 -31.17,-16.943c-6.16,-5.776 -0.73,-15.403 -11.6,-17.328c-10.87,-1.925 -20.29,-4.236 -25.73,1.541c-5.44,5.775 -5.8,15.402 -13.77,13.862c-7.98,-1.541 7.97,-20.024 -2.9,-21.949c-10.87,-1.926 -26.1,-5.006 -37.33,-3.466c-11.24,1.54 -25.01,-1.54 -25.73,6.931c-0.73,8.472 2.53,24.26 -1.82,23.875c-4.35,-0.385 -35.88,1.925 -45.3,1.54c-9.42,-0.385 -28.99,-17.713 -35.52,-14.633c-6.52,3.081 -9.42,28.495 -19.93,25.415c-10.51,-3.081 -22.11,-7.316 -21.38,-20.408c0.72,-13.093 7.24,-21.95 1.08,-28.496c-6.16,-6.546 -37.33,-24.644 -50.37,-23.104c-13.05,1.54 -4.72,17.713 -15.59,21.949c-10.87,4.236 -43.49,5.006 -50.01,-1.54c-6.53,-6.546 0.36,-12.707 -9.79,-13.477c-10.15,-0.771 -41.31,-4.236 -48.93,1.54c-7.61,5.776 -8.69,-3.851 -11.96,-12.707c-3.26,-8.857 -15.22,-6.932 -19.93,0.77c-4.71,7.701 -5.8,13.092 -20.29,16.943c-14.5,3.85 -26.1,13.862 -30.45,8.086c-4.35,-5.776 -4.71,-10.782 5.08,-13.477c9.78,-2.696 16.3,-8.087 28.26,-14.633c11.96,-6.546 9.07,-15.403 19.58,-16.558c10.51,-1.155 23.92,3.466 23.92,-7.701c-0,-11.167 3.98,-19.639 -2.54,-26.185c-6.53,-6.546 -15.59,-12.707 -22.11,-13.092c-6.52,-0.385 -11.6,1.54 -24.28,2.695c-12.69,1.156 -26.1,6.547 -29,3.081c-2.9,-3.465 2.9,-8.087 -2.9,-12.707c-5.79,-4.621 -4.67,-20.794 -17.19,-16.943c-12.52,3.851 -36.08,3.465 -38.26,11.937c-2.17,8.471 -1.08,23.874 -6.16,22.719c-5.07,-1.156 -39.98,11.68 -51.1,11.68c-11.11,0 -36.73,-6.674 -40.59,-3.08c-3.87,3.594 -29.48,9.755 -41.56,13.862c-12.08,4.108 -37.21,5.648 -30.93,17.457c6.29,11.808 12.57,24.13 1.45,23.617c-11.11,-0.513 -20.29,0.513 -32.37,2.567c-12.08,2.054 -41.08,-7.701 -39.15,4.108c1.94,11.808 22.23,25.157 22.72,33.372c0.48,8.215 -1.94,10.782 -8.22,7.701c-6.28,-3.08 -4.83,-9.241 -15.94,-10.268c-11.12,-1.027 -19.33,-4.108 -29.97,-0.513c-10.63,3.593 -12.56,4.62 -12.56,4.62c-0,-0 -6.28,5.134 2.42,10.269c8.69,5.134 1.93,10.781 -3.87,9.755c-5.8,-1.027 -20.3,2.053 -14.98,-7.702c5.32,-9.754 15.46,-13.349 6.28,-23.104c-9.18,-9.754 -16.43,-9.754 -15.94,-5.647c0.48,4.107 3.38,11.809 -0.49,14.889c-3.86,3.081 -14.98,2.567 -11.6,10.782c3.39,8.215 15.47,17.97 9.19,24.644c-6.29,6.675 -14.02,11.295 -5.8,21.051c8.21,9.755 18.36,9.241 24.64,7.701c6.28,-1.54 11.6,-8.215 19.33,4.621c7.73,12.835 14.02,21.05 7.73,22.077c-6.28,1.027 -10.14,2.567 -11.59,-6.675c-1.45,-9.241 1.45,-15.916 -5.32,-15.402c-6.76,0.513 -23.19,2.567 -23.19,9.242c0,6.674 -1.45,16.429 -4.84,22.59c-3.38,6.161 -22.95,25.158 -36,24.131c-13.05,-1.027 -20.05,-4.364 -18.36,-8.471c1.69,-4.108 24.89,-2.825 28.51,-8.729c3.62,-5.904 14.5,-17.456 14.98,-23.874c0.48,-6.418 -6.52,-5.647 -7.97,-13.349c-1.45,-7.701 4.83,-31.319 2.17,-37.48c-2.66,-6.161 -9.66,-11.039 -8.7,-18.997c0.97,-7.958 14.74,-14.119 11.36,-23.104c-3.38,-8.984 -11.36,-9.241 -15.46,-15.659c-4.11,-6.418 -7.49,-11.039 -11.6,-10.268c-4.11,0.77 -11.12,11.038 -12.32,14.119c-1.21,3.08 -8.22,0.77 -7.98,7.701c0.24,6.931 1.69,15.659 -2.9,17.2c-4.59,1.54 -10.14,3.594 -14.98,10.268c-4.83,6.675 -4.83,7.958 -0.96,14.633c3.86,6.674 4.1,8.471 -0.97,12.322c-5.07,3.85 -9.91,7.188 -3.87,10.268c6.04,3.081 8.22,-0.513 11.6,6.932c3.38,7.444 11.12,7.188 11.6,11.038c0.48,3.851 4.59,10.012 -3.63,11.039c-8.21,1.027 -28.75,-13.734 -36.72,-17.97c-7.97,-4.236 -14.14,-5.391 -23.92,-9.242c-9.79,-3.85 -19.21,-1.925 -25.01,-3.08c-5.8,-1.156 -12.68,-5.391 -18.12,-9.627c-5.44,-4.236 -11.23,-3.08 -10.87,0.77c0.36,3.851 6.52,9.242 12.32,13.863c5.8,4.621 19.21,10.397 12.32,13.477c-6.88,3.081 -5.07,12.322 -10.87,11.937c-5.8,-0.385 0.36,-10.782 -13.05,-8.856c-13.41,1.925 -15.94,3.08 -22.47,4.62c-6.52,1.541 -22.11,7.317 -26.09,6.547c-3.99,-0.77 3.62,-13.478 -1.81,-15.018c-5.44,-1.54 -22.11,4.235 -29.72,10.782c-7.61,6.546 -13.05,4.236 -23.56,10.782c-10.51,6.546 -13.41,10.011 -15.22,16.943c-1.82,6.931 -9.79,9.626 -18.49,6.546c-8.69,-3.081 -16.31,-1.54 -15.22,-8.087c1.09,-6.545 9.42,-4.235 12.32,-10.011c2.9,-5.776 3.63,-10.782 -1.45,-15.788c-5.07,-5.006 -18.84,-11.937 -23.19,-6.932c-4.35,5.007 -3.99,15.403 -0.36,23.105c3.62,7.701 -5.08,10.396 -0.37,19.253c4.72,8.857 3.63,21.179 -1.08,17.328c-4.71,-3.851 -7.98,-18.483 -16.31,-13.862c-8.34,4.621 -26.1,9.627 -27.91,15.403c-1.81,5.775 2.9,17.328 1.45,20.793c-1.45,3.466 -10.15,5.006 -14.86,0.77c-4.71,-4.235 -15.95,-18.098 -20.66,-9.241c-4.71,8.856 10.88,13.477 7.98,19.638c-2.9,6.161 -10.51,7.702 -17.04,1.925c-6.52,-5.776 -16.31,-1.925 -17.03,-12.707c-0.73,-10.781 1.45,-13.862 -3.63,-20.794c-5.07,-6.931 -18.12,-14.247 -12.32,-16.943c5.8,-2.695 51.1,14.633 57.26,10.012c6.17,-4.62 23.2,-1.155 26.46,-11.167c3.26,-10.012 4.35,-17.713 -5.07,-23.104c-9.43,-5.39 -22.47,-10.396 -33.71,-21.179c-11.23,-10.781 -16.31,-11.937 -27.54,-11.937c-11.24,-0 -21.75,1.156 -25.01,-3.465c-3.26,-4.621 -26.09,-3.466 -27.06,-7.573c-0.97,-4.108 13.05,-7.188 4.35,-12.322c-8.7,-5.135 -16.91,-6.675 -26.1,-10.782c-9.18,-4.108 -19.33,6.161 -22.71,6.161c-3.38,0 -0.48,-11.295 -8.7,-11.295c-8.21,-0 -15.46,11.295 -24.64,11.808c-9.18,0.514 -11.6,-9.755 -14.98,-6.161c-3.38,3.594 -1.45,15.917 -5.8,16.943c-4.35,1.027 -17.88,-9.755 -27.54,-3.594c-9.67,6.161 -16.43,15.916 -20.3,22.591c-3.87,6.674 -4.83,10.782 -8.7,10.269c-3.86,-0.514 -13.53,-10.783 -21.74,-4.108c-8.22,6.674 -25.62,16.429 -22.72,21.564c2.9,5.134 20.3,-9.755 25.13,-5.135c4.83,4.621 -9.66,21.051 -15.94,25.159c-6.29,4.106 -10.15,21.563 -17.88,29.778c-7.74,8.215 -43.98,48.775 -58.96,54.423c-14.98,5.648 -25.61,5.134 -22.23,17.456c3.39,12.323 0.97,21.051 5.32,33.886c4.35,12.836 -4.35,28.238 10.63,31.319c14.98,3.08 20.78,5.648 28.51,-3.594c7.73,-9.242 12.08,-18.996 18.85,-15.403c6.76,3.595 2.41,14.376 7.24,19.511c4.84,5.134 16.26,24.826 15.95,30.805c-0.6,11.809 7.13,15.146 14.01,17.456c6.89,2.311 5.44,-5.391 7.25,-12.322c1.82,-6.931 14.5,-3.851 26.82,-10.012c12.33,-6.161 0.73,-19.638 1.09,-32.73c0.36,-13.092 16.31,-14.633 18.85,-29.265c2.53,-14.633 -11.6,-10.783 -17.04,-25.415c-5.43,-14.633 6.16,-20.023 11.96,-26.955c5.8,-6.931 21.75,-10.396 29,-15.788c7.24,-5.391 6.16,-14.632 2.17,-24.259c-3.99,-9.626 30.81,-16.173 36.24,-14.633c5.44,1.541 7.98,9.242 8.34,19.639c0.36,10.397 -6.52,11.552 -9.79,17.713c-3.26,6.161 -14.85,12.322 -25.37,20.409c-10.51,8.086 -4.35,27.725 -1.81,36.966c2.54,9.242 14.5,11.552 25.73,15.788c11.24,4.236 22.47,-3.851 29.72,-6.931c7.25,-3.081 21.75,-1.925 23.56,1.54c1.81,3.466 -4.71,7.702 -12.68,13.477c-7.98,5.776 -30.09,1.156 -43.13,1.541c-13.05,0.385 -9.06,5.006 -15.22,11.167c-6.17,6.161 -2.54,8.856 3.98,10.396c6.53,1.541 12.69,-1.54 18.12,3.851c5.44,5.391 1.09,11.552 -5.79,16.943c-6.89,5.391 -8.34,-5.391 -15.95,-8.471c-7.61,-3.081 -8.7,5.006 -14.86,15.403c-6.16,10.397 0.72,8.856 1.09,18.483c0.36,9.626 -15.11,14.247 -29.6,16.301c-14.5,2.053 -16.19,-1.027 -25.85,4.878c-9.67,5.904 -19.33,6.16 -26.34,2.823c-7.01,-3.337 -6.53,-8.984 -10.87,-7.444c-4.35,1.54 -11.84,2.823 -12.33,-1.54c-0.48,-4.365 0.73,-5.905 -1.45,-12.066c-2.17,-6.161 -7.24,-5.648 -8.21,-8.215c-2.59,-6.875 2.41,-12.322 -0.97,-21.564c-3.38,-9.241 -3.38,-15.403 -10.15,-10.781c-6.76,4.62 -15.94,-0.514 -21.26,14.375c-5.31,14.89 5.8,50.316 -1.45,53.397c-7.25,3.08 -8.7,-4.108 -18.36,2.566c-9.67,6.675 -15.95,6.162 -19.81,10.269c-3.87,4.107 -3.87,14.376 -7.74,18.483c-3.86,4.108 -20.89,10.525 -26.33,17.456c-5.44,6.932 0.719,11.553 -7.25,14.633c-7.97,3.081 -12.68,10.782 -17.031,8.857c-4.349,-1.926 -11.599,-8.857 -15.949,-6.161c-4.35,2.695 5.439,16.942 -0,17.328c-5.44,0.385 -35.52,-3.851 -35.52,4.236c-0,8.086 25.37,10.781 30.81,19.253c5.429,8.471 7.25,20.793 9.419,32.73c2.181,11.938 -0.359,21.95 -5.069,21.95c-4.71,-0 -52.92,-4.621 -62.7,-1.926c-9.79,2.696 -18.49,-3.851 -19.94,6.546c-1.45,10.397 7.62,15.018 3.99,20.409c-3.62,5.391 -2.49,19.253 -4.14,25.41c-1.66,6.17 -4.87,18.49 0,28.88c4.87,10.4 9.58,14.25 17.91,13.48c8.34,-0.77 10.03,-0.77 14.14,5.78c2.19,3.49 29.72,5.26 38.66,0.9c8.94,-4.37 22.59,-17.85 30.56,-26.32c7.97,-8.47 2.18,-17.71 3.63,-28.492c1.439,-10.782 21.74,-12.707 32.98,-18.483c11.23,-5.776 2.53,-18.868 6.52,-25.414c3.99,-6.547 22.11,0.385 30.81,3.08c8.69,2.696 13.04,-7.316 18.84,-11.167c5.8,-3.85 13.41,-1.155 17.76,3.466c4.35,4.621 17.03,13.092 21.38,20.408c4.35,7.317 17.76,13.093 25.01,22.719c7.25,9.627 15.59,8.857 18.12,10.393c2.54,1.54 6.16,8.86 5.08,17.33c-1.09,8.47 -12.33,9.63 -18.85,11.55c-6.52,1.93 -14.86,-2.31 -20.3,2.7c-5.43,5.01 13.41,7.32 23.56,11.55c10.15,4.24 13.77,-11.94 18.12,-15.4c4.35,-3.47 10.88,-12.71 11.24,-18.87c0.36,-6.16 14.86,-7.32 11.96,-14.632c-2.9,-7.316 -10.87,-11.552 -25.01,-20.409c-14.13,-8.856 -13.05,-15.017 -21.38,-24.259c-8.34,-9.241 -14.86,-14.247 -16.67,-20.793c-1.82,-6.546 8.69,-1.54 19.2,3.465c10.52,5.006 10.52,12.707 21.75,22.719c11.24,10.012 18.12,5.391 28.63,11.937c10.51,6.547 9.42,9.242 8.34,20.794c-1.09,11.552 11.96,21.948 13.04,35.428c1.09,13.48 21.03,20.41 31.17,24.64c10.15,4.24 7.25,-38.89 6.16,-48.516c-1.08,-9.627 16.68,-8.857 26.82,-4.236c10.15,4.621 10.88,35.042 14.86,45.822c3.99,10.78 27.19,11.94 38.06,10.01c10.87,-1.92 13.41,-1.92 17.03,0.77c3.63,2.7 13.77,8.09 27.55,-1.54c13.77,-9.62 14.86,5.01 13.04,15.02c-1.81,10.01 3.63,14.25 0.37,26.57c-3.27,12.32 -8.34,21.95 -14.14,26.96c-5.8,5 -18.48,10.01 -30.44,3.85c-11.96,-6.17 -22.83,-0 -31.9,4.62c-9.06,4.62 -46.75,-12.71 -54.36,-16.95c-7.61,-4.23 -29.36,-9.62 -39.14,-7.7c-9.79,1.93 -7.97,23.11 -16.31,31.96c-8.34,8.86 -13.77,-5.77 -25.73,-9.62c-11.96,-3.85 -63.79,-30.04 -66.69,-39.67c-2.9,-9.62 0.36,-11.16 -3.26,-22.33c-3.62,-11.17 11.6,-19.25 2.54,-21.18c-9.06,-1.92 -62.34,6.93 -83,5.78c-20.66,-1.16 -43.13,10.01 -53.28,16.94c-10.14,6.93 -26.09,4.24 -39.14,3.47c-13.04,-0.77 -14.49,-5.39 -20.66,-2.7c-6.16,2.7 -15.94,23.1 -24.28,28.88c-10.32,7.16 -23.56,1.93 -19.21,15.4c4.35,13.48 0.39,14.25 -0.89,22.34c-1.28,8.08 -27.01,33.5 -36.44,40.43c-9.42,6.93 -11.59,18.48 -19.57,31.19c-7.97,12.71 -30.8,35.43 -26.09,50.06c4.71,14.63 11.6,13.48 9.42,24.64c-2.17,11.17 0.36,25.42 -3.99,37.35c-4.34,11.94 -11.59,14.64 -5.43,25.8c6.16,11.17 -2.9,26.96 5.07,33.89c7.98,6.93 14.86,-3.08 22.11,6.16c7.25,9.24 13.77,35.43 25.37,43.13c11.6,7.7 38.42,39.66 50.01,36.58c11.6,-3.08 10.51,-8.09 25.37,-6.55c14.86,1.54 26.1,1.16 38.42,1.93c12.32,0.77 25.369,-11.94 40.59,-13.48c15.22,-1.54 27.91,-10.01 36.97,-0.38c9.06,9.62 25.73,17.71 29.36,15.78c3.62,-1.92 26.45,-1.15 31.53,8.86c5.07,10.01 -20.18,45.05 -6.65,67.65c13.53,22.59 28.03,24.64 31.9,40.04c3.86,15.4 13.53,11.81 15.46,35.43c1.93,23.62 10.63,41.07 6.28,46.21c-4.35,5.13 -22.71,52.37 -24.16,68.79c-1.45,16.43 18.85,31.84 24.16,46.73c5.32,14.89 11.12,49.8 11.12,64.69c0,14.89 1.93,19.51 12.08,32.86c10.14,13.35 28.99,29.26 27.54,44.15c-1.45,14.89 -7.73,35.94 14.98,40.56c18.73,3.81 40.59,-4.62 56.54,-7.7c15.95,-3.08 53.64,-12.32 62.34,-30.8c8.7,-18.49 24.64,-50.83 31.89,-69.32c7.25,-18.48 30.44,-23.1 27.55,-35.42c-2.9,-12.33 -11.1,-44.67 0.24,-53.91c11.35,-9.24 53.39,-26.19 56.29,-47.75c2.9,-21.56 -4.35,-73.93 -7.24,-86.26c-2.9,-12.32 0,-60.07 0,-60.07c0,0 82.63,-73.93 95.68,-97.03c13.04,-23.11 42.04,-81.64 37.69,-90.88c-4.35,-9.24 -30.45,4.62 -37.69,6.16c-3.82,0.81 -21.89,8.74 -36.61,3.66c-13.23,-4.57 -23.05,-21.44 -29.11,-32.92c-6.1,-11.56 -9.19,-12.33 -21.75,-27.21c-12.56,-14.89 -5.8,-17.46 -19.81,-26.7c-14.02,-9.25 -8.7,-14.89 -9.67,-29.27c-0.96,-14.37 -9.18,-14.37 -11.11,-23.62c-1.93,-9.24 -5.8,-15.91 -15.95,-28.54c-10.15,-12.62 -5.8,-16.12 -13.05,-29.99c-7.24,-13.86 -6.28,-12.83 -1.93,-18.99c4.92,-6.97 9.67,-12.84 14.98,-4.62c5.32,8.21 7.25,14.89 14.02,23.61c6.76,8.73 8.69,7.19 18.36,24.65c9.66,17.45 18.84,15.91 17.39,30.8c-1.44,14.89 -7.73,15.41 -0.48,20.54c7.25,5.13 15.47,10.27 20.3,18.48c4.83,8.22 16.43,9.76 17.39,25.67c0.56,9.21 0.12,38.21 9.19,49.04c6.61,7.9 22.73,0.33 26.09,-3.08Z" style="fill:none;stroke:#fff;stroke-width:4px;"></path>
  </g>
</svg>
